%TF.GenerationSoftware,KiCad,Pcbnew,7.0.9-7.0.9~ubuntu22.04.1*%
%TF.CreationDate,2024-01-09T22:45:08-05:00*%
%TF.ProjectId,AoE_Too_Hot,416f455f-546f-46f5-9f48-6f742e6b6963,rev?*%
%TF.SameCoordinates,Original*%
%TF.FileFunction,Copper,L2,Bot*%
%TF.FilePolarity,Positive*%
%FSLAX46Y46*%
G04 Gerber Fmt 4.6, Leading zero omitted, Abs format (unit mm)*
G04 Created by KiCad (PCBNEW 7.0.9-7.0.9~ubuntu22.04.1) date 2024-01-09 22:45:08*
%MOMM*%
%LPD*%
G01*
G04 APERTURE LIST*
%TA.AperFunction,ComponentPad*%
%ADD10C,1.800000*%
%TD*%
%TA.AperFunction,ComponentPad*%
%ADD11R,1.800000X1.800000*%
%TD*%
%TA.AperFunction,ComponentPad*%
%ADD12R,2.400000X1.600000*%
%TD*%
%TA.AperFunction,ComponentPad*%
%ADD13O,2.400000X1.600000*%
%TD*%
%TA.AperFunction,ComponentPad*%
%ADD14C,1.600000*%
%TD*%
%TA.AperFunction,ComponentPad*%
%ADD15O,1.600000X1.600000*%
%TD*%
%TA.AperFunction,ViaPad*%
%ADD16C,0.800000*%
%TD*%
G04 APERTURE END LIST*
D10*
%TO.P,D1,2,A*%
%TO.N,Net-(BT1-+)*%
X147828000Y-63119000D03*
D11*
%TO.P,D1,1,K*%
%TO.N,Net-(D1-K)*%
X147828000Y-65659000D03*
%TD*%
D12*
%TO.P,U1,1*%
%TO.N,Net-(R4-Pad2)*%
X130795000Y-76200000D03*
D13*
%TO.P,U1,2,-*%
%TO.N,Net-(U1A--)*%
X130795000Y-78740000D03*
%TO.P,U1,3,+*%
%TO.N,Net-(U1A-+)*%
X130795000Y-81280000D03*
%TO.P,U1,4,V-*%
%TO.N,GND*%
X130795000Y-83820000D03*
%TO.P,U1,5,+*%
%TO.N,unconnected-(U1B-+-Pad5)*%
X138415000Y-83820000D03*
%TO.P,U1,6,-*%
%TO.N,unconnected-(U1B---Pad6)*%
X138415000Y-81280000D03*
%TO.P,U1,7*%
%TO.N,unconnected-(U1-Pad7)*%
X138415000Y-78740000D03*
%TO.P,U1,8,V+*%
%TO.N,Net-(BT1-+)*%
X138415000Y-76200000D03*
%TD*%
D14*
%TO.P,TH1,1*%
%TO.N,Net-(U1A--)*%
X123444000Y-85090000D03*
D15*
%TO.P,TH1,2*%
%TO.N,GND*%
X123444000Y-95250000D03*
%TD*%
D14*
%TO.P,R1,1*%
%TO.N,Net-(BT1-+)*%
X114250000Y-63580000D03*
D15*
%TO.P,R1,2*%
%TO.N,Net-(U1A-+)*%
X114250000Y-73740000D03*
%TD*%
%TO.P,R4,2*%
%TO.N,Net-(R4-Pad2)*%
X147828000Y-78740000D03*
D14*
%TO.P,R4,1*%
%TO.N,Net-(D1-K)*%
X147828000Y-68580000D03*
%TD*%
%TO.P,R2,1*%
%TO.N,Net-(U1A-+)*%
X114250000Y-85090000D03*
D15*
%TO.P,R2,2*%
%TO.N,GND*%
X114250000Y-95250000D03*
%TD*%
D14*
%TO.P,R3,1*%
%TO.N,Net-(BT1-+)*%
X123444000Y-63500000D03*
D15*
%TO.P,R3,2*%
%TO.N,Net-(U1A--)*%
X123444000Y-73660000D03*
%TD*%
D16*
%TO.N,GND*%
X93980000Y-77978000D03*
%TD*%
%TA.AperFunction,Conductor*%
%TO.N,GND*%
G36*
X149861737Y-58420598D02*
G01*
X149895041Y-58422467D01*
X149975603Y-58426992D01*
X150147691Y-58437401D01*
X150154297Y-58438160D01*
X150225907Y-58450327D01*
X150290343Y-58461277D01*
X150383462Y-58478340D01*
X150439227Y-58488560D01*
X150445198Y-58489963D01*
X150582032Y-58529384D01*
X150722850Y-58573265D01*
X150728092Y-58575164D01*
X150861420Y-58630391D01*
X150994609Y-58690334D01*
X150999147Y-58692605D01*
X151072221Y-58732991D01*
X151126422Y-58762947D01*
X151126439Y-58762956D01*
X151250935Y-58838217D01*
X151254739Y-58840711D01*
X151372726Y-58924427D01*
X151375072Y-58926176D01*
X151470416Y-59000874D01*
X151488332Y-59014910D01*
X151491409Y-59017486D01*
X151599430Y-59114018D01*
X151601957Y-59116408D01*
X151703590Y-59218041D01*
X151705980Y-59220568D01*
X151802512Y-59328589D01*
X151805088Y-59331666D01*
X151893811Y-59444912D01*
X151895571Y-59447272D01*
X151979287Y-59565259D01*
X151981781Y-59569063D01*
X152057043Y-59693560D01*
X152127393Y-59820851D01*
X152129668Y-59825398D01*
X152189609Y-59958581D01*
X152244831Y-60091899D01*
X152246744Y-60097183D01*
X152269633Y-60170634D01*
X152290631Y-60238021D01*
X152330032Y-60374790D01*
X152331440Y-60380781D01*
X152358722Y-60529656D01*
X152381835Y-60665683D01*
X152382599Y-60672330D01*
X152393012Y-60844475D01*
X152399402Y-60958263D01*
X152399500Y-60961741D01*
X152399500Y-99058258D01*
X152399402Y-99061736D01*
X152393012Y-99175524D01*
X152382599Y-99347668D01*
X152381835Y-99354315D01*
X152358722Y-99490343D01*
X152331440Y-99639217D01*
X152330032Y-99645208D01*
X152290625Y-99782001D01*
X152246744Y-99922815D01*
X152244831Y-99928099D01*
X152189609Y-100061418D01*
X152129668Y-100194600D01*
X152127394Y-100199147D01*
X152057043Y-100326439D01*
X151981781Y-100450936D01*
X151979287Y-100454739D01*
X151895571Y-100572726D01*
X151893811Y-100575086D01*
X151805088Y-100688332D01*
X151802512Y-100691409D01*
X151705980Y-100799430D01*
X151703590Y-100801957D01*
X151601957Y-100903590D01*
X151599430Y-100905980D01*
X151491409Y-101002512D01*
X151488332Y-101005088D01*
X151375086Y-101093811D01*
X151372726Y-101095571D01*
X151254739Y-101179287D01*
X151250936Y-101181781D01*
X151126439Y-101257043D01*
X150999147Y-101327394D01*
X150994600Y-101329668D01*
X150861418Y-101389609D01*
X150728099Y-101444831D01*
X150722815Y-101446744D01*
X150605231Y-101483385D01*
X150581990Y-101490627D01*
X150445208Y-101530032D01*
X150439217Y-101531440D01*
X150290343Y-101558722D01*
X150154315Y-101581835D01*
X150147668Y-101582599D01*
X149975524Y-101593012D01*
X149861736Y-101599402D01*
X149858258Y-101599500D01*
X78741742Y-101599500D01*
X78738265Y-101599402D01*
X78624475Y-101593012D01*
X78452330Y-101582599D01*
X78445683Y-101581835D01*
X78309656Y-101558722D01*
X78160781Y-101531440D01*
X78154790Y-101530032D01*
X78018021Y-101490631D01*
X77950634Y-101469633D01*
X77877183Y-101446744D01*
X77871899Y-101444831D01*
X77738581Y-101389609D01*
X77605398Y-101329668D01*
X77600851Y-101327393D01*
X77473560Y-101257043D01*
X77349063Y-101181781D01*
X77345259Y-101179287D01*
X77227272Y-101095571D01*
X77224912Y-101093811D01*
X77111666Y-101005088D01*
X77108589Y-101002512D01*
X77000568Y-100905980D01*
X76998041Y-100903590D01*
X76896408Y-100801957D01*
X76894018Y-100799430D01*
X76797486Y-100691409D01*
X76794910Y-100688332D01*
X76780874Y-100670416D01*
X76706176Y-100575072D01*
X76704427Y-100572726D01*
X76620711Y-100454739D01*
X76618217Y-100450935D01*
X76542956Y-100326439D01*
X76472605Y-100199147D01*
X76470330Y-100194600D01*
X76410390Y-100061418D01*
X76355167Y-99928099D01*
X76353265Y-99922850D01*
X76309375Y-99782001D01*
X76269963Y-99645198D01*
X76268560Y-99639227D01*
X76258340Y-99583462D01*
X76241277Y-99490343D01*
X76230327Y-99425907D01*
X76218160Y-99354297D01*
X76217401Y-99347691D01*
X76206992Y-99175603D01*
X76202626Y-99097867D01*
X76200598Y-99061736D01*
X76200500Y-99058259D01*
X76200500Y-94999999D01*
X112971127Y-94999999D01*
X112971128Y-95000000D01*
X113934314Y-95000000D01*
X113922359Y-95011955D01*
X113864835Y-95124852D01*
X113845014Y-95250000D01*
X113864835Y-95375148D01*
X113922359Y-95488045D01*
X113934314Y-95500000D01*
X112971128Y-95500000D01*
X113023730Y-95696317D01*
X113023734Y-95696326D01*
X113119865Y-95902482D01*
X113250342Y-96088820D01*
X113411179Y-96249657D01*
X113597517Y-96380134D01*
X113803673Y-96476265D01*
X113803682Y-96476269D01*
X113999999Y-96528872D01*
X114000000Y-96528871D01*
X114000000Y-95565686D01*
X114011955Y-95577641D01*
X114124852Y-95635165D01*
X114218519Y-95650000D01*
X114281481Y-95650000D01*
X114375148Y-95635165D01*
X114488045Y-95577641D01*
X114500000Y-95565686D01*
X114500000Y-96528872D01*
X114696317Y-96476269D01*
X114696326Y-96476265D01*
X114902482Y-96380134D01*
X115088820Y-96249657D01*
X115249657Y-96088820D01*
X115380134Y-95902482D01*
X115476265Y-95696326D01*
X115476269Y-95696317D01*
X115528872Y-95500000D01*
X114565686Y-95500000D01*
X114577641Y-95488045D01*
X114635165Y-95375148D01*
X114654986Y-95250000D01*
X114635165Y-95124852D01*
X114577641Y-95011955D01*
X114565686Y-95000000D01*
X115528872Y-95000000D01*
X115528872Y-94999999D01*
X122165127Y-94999999D01*
X122165128Y-95000000D01*
X123128314Y-95000000D01*
X123116359Y-95011955D01*
X123058835Y-95124852D01*
X123039014Y-95250000D01*
X123058835Y-95375148D01*
X123116359Y-95488045D01*
X123128314Y-95500000D01*
X122165128Y-95500000D01*
X122217730Y-95696317D01*
X122217734Y-95696326D01*
X122313865Y-95902482D01*
X122444342Y-96088820D01*
X122605179Y-96249657D01*
X122791517Y-96380134D01*
X122997673Y-96476265D01*
X122997682Y-96476269D01*
X123193999Y-96528872D01*
X123194000Y-96528871D01*
X123194000Y-95565686D01*
X123205955Y-95577641D01*
X123318852Y-95635165D01*
X123412519Y-95650000D01*
X123475481Y-95650000D01*
X123569148Y-95635165D01*
X123682045Y-95577641D01*
X123694000Y-95565686D01*
X123694000Y-96528872D01*
X123890317Y-96476269D01*
X123890326Y-96476265D01*
X124096482Y-96380134D01*
X124282820Y-96249657D01*
X124443657Y-96088820D01*
X124574134Y-95902482D01*
X124670265Y-95696326D01*
X124670269Y-95696317D01*
X124722872Y-95500000D01*
X123759686Y-95500000D01*
X123771641Y-95488045D01*
X123829165Y-95375148D01*
X123848986Y-95250000D01*
X123829165Y-95124852D01*
X123771641Y-95011955D01*
X123759686Y-95000000D01*
X124722872Y-95000000D01*
X124722872Y-94999999D01*
X124670269Y-94803682D01*
X124670265Y-94803673D01*
X124574134Y-94597517D01*
X124443657Y-94411179D01*
X124282820Y-94250342D01*
X124096482Y-94119865D01*
X123890328Y-94023734D01*
X123694000Y-93971127D01*
X123694000Y-94934314D01*
X123682045Y-94922359D01*
X123569148Y-94864835D01*
X123475481Y-94850000D01*
X123412519Y-94850000D01*
X123318852Y-94864835D01*
X123205955Y-94922359D01*
X123194000Y-94934314D01*
X123194000Y-93971127D01*
X122997671Y-94023734D01*
X122791517Y-94119865D01*
X122605179Y-94250342D01*
X122444342Y-94411179D01*
X122313865Y-94597517D01*
X122217734Y-94803673D01*
X122217730Y-94803682D01*
X122165127Y-94999999D01*
X115528872Y-94999999D01*
X115476269Y-94803682D01*
X115476265Y-94803673D01*
X115380134Y-94597517D01*
X115249657Y-94411179D01*
X115088820Y-94250342D01*
X114902482Y-94119865D01*
X114696328Y-94023734D01*
X114500000Y-93971127D01*
X114500000Y-94934314D01*
X114488045Y-94922359D01*
X114375148Y-94864835D01*
X114281481Y-94850000D01*
X114218519Y-94850000D01*
X114124852Y-94864835D01*
X114011955Y-94922359D01*
X114000000Y-94934314D01*
X114000000Y-93971127D01*
X113803671Y-94023734D01*
X113597517Y-94119865D01*
X113411179Y-94250342D01*
X113250342Y-94411179D01*
X113119865Y-94597517D01*
X113023734Y-94803673D01*
X113023730Y-94803682D01*
X112971127Y-94999999D01*
X76200500Y-94999999D01*
X76200500Y-85090001D01*
X112944532Y-85090001D01*
X112964364Y-85316686D01*
X112964366Y-85316697D01*
X113023258Y-85536488D01*
X113023261Y-85536497D01*
X113119431Y-85742732D01*
X113119432Y-85742734D01*
X113249954Y-85929141D01*
X113410858Y-86090045D01*
X113410861Y-86090047D01*
X113597266Y-86220568D01*
X113803504Y-86316739D01*
X114023308Y-86375635D01*
X114185230Y-86389801D01*
X114249998Y-86395468D01*
X114250000Y-86395468D01*
X114250002Y-86395468D01*
X114306673Y-86390509D01*
X114476692Y-86375635D01*
X114696496Y-86316739D01*
X114902734Y-86220568D01*
X115089139Y-86090047D01*
X115250047Y-85929139D01*
X115380568Y-85742734D01*
X115476739Y-85536496D01*
X115535635Y-85316692D01*
X115555468Y-85090001D01*
X122138532Y-85090001D01*
X122158364Y-85316686D01*
X122158366Y-85316697D01*
X122217258Y-85536488D01*
X122217261Y-85536497D01*
X122313431Y-85742732D01*
X122313432Y-85742734D01*
X122443954Y-85929141D01*
X122604858Y-86090045D01*
X122604861Y-86090047D01*
X122791266Y-86220568D01*
X122997504Y-86316739D01*
X123217308Y-86375635D01*
X123379230Y-86389801D01*
X123443998Y-86395468D01*
X123444000Y-86395468D01*
X123444002Y-86395468D01*
X123500673Y-86390509D01*
X123670692Y-86375635D01*
X123890496Y-86316739D01*
X124096734Y-86220568D01*
X124283139Y-86090047D01*
X124444047Y-85929139D01*
X124574568Y-85742734D01*
X124670739Y-85536496D01*
X124729635Y-85316692D01*
X124749468Y-85090000D01*
X124729635Y-84863308D01*
X124670739Y-84643504D01*
X124574568Y-84437266D01*
X124444047Y-84250861D01*
X124444045Y-84250858D01*
X124283141Y-84089954D01*
X124096734Y-83959432D01*
X124096732Y-83959431D01*
X123890497Y-83863261D01*
X123890488Y-83863258D01*
X123670697Y-83804366D01*
X123670693Y-83804365D01*
X123670692Y-83804365D01*
X123670691Y-83804364D01*
X123670686Y-83804364D01*
X123444002Y-83784532D01*
X123443998Y-83784532D01*
X123217313Y-83804364D01*
X123217302Y-83804366D01*
X122997511Y-83863258D01*
X122997502Y-83863261D01*
X122791267Y-83959431D01*
X122791265Y-83959432D01*
X122604858Y-84089954D01*
X122443954Y-84250858D01*
X122313432Y-84437265D01*
X122313431Y-84437267D01*
X122217261Y-84643502D01*
X122217258Y-84643511D01*
X122158366Y-84863302D01*
X122158364Y-84863313D01*
X122138532Y-85089998D01*
X122138532Y-85090001D01*
X115555468Y-85090001D01*
X115555468Y-85090000D01*
X115535635Y-84863308D01*
X115476739Y-84643504D01*
X115380568Y-84437266D01*
X115250047Y-84250861D01*
X115250045Y-84250858D01*
X115089141Y-84089954D01*
X114902734Y-83959432D01*
X114902732Y-83959431D01*
X114696497Y-83863261D01*
X114696488Y-83863258D01*
X114476697Y-83804366D01*
X114476693Y-83804365D01*
X114476692Y-83804365D01*
X114476691Y-83804364D01*
X114476686Y-83804364D01*
X114250002Y-83784532D01*
X114249998Y-83784532D01*
X114023313Y-83804364D01*
X114023302Y-83804366D01*
X113803511Y-83863258D01*
X113803502Y-83863261D01*
X113597267Y-83959431D01*
X113597265Y-83959432D01*
X113410858Y-84089954D01*
X113249954Y-84250858D01*
X113119432Y-84437265D01*
X113119431Y-84437267D01*
X113023261Y-84643502D01*
X113023258Y-84643511D01*
X112964366Y-84863302D01*
X112964364Y-84863313D01*
X112944532Y-85089998D01*
X112944532Y-85090001D01*
X76200500Y-85090001D01*
X76200500Y-81280001D01*
X129089532Y-81280001D01*
X129109364Y-81506686D01*
X129109366Y-81506697D01*
X129168258Y-81726488D01*
X129168261Y-81726497D01*
X129264431Y-81932732D01*
X129264432Y-81932734D01*
X129394954Y-82119141D01*
X129555858Y-82280045D01*
X129555861Y-82280047D01*
X129742266Y-82410568D01*
X129800865Y-82437893D01*
X129853305Y-82484065D01*
X129872457Y-82551258D01*
X129852242Y-82618139D01*
X129800867Y-82662657D01*
X129742515Y-82689867D01*
X129556179Y-82820342D01*
X129395342Y-82981179D01*
X129264865Y-83167517D01*
X129168734Y-83373673D01*
X129168730Y-83373682D01*
X129116127Y-83569999D01*
X129116128Y-83570000D01*
X130479314Y-83570000D01*
X130467359Y-83581955D01*
X130409835Y-83694852D01*
X130390014Y-83820000D01*
X130409835Y-83945148D01*
X130467359Y-84058045D01*
X130479314Y-84070000D01*
X129116128Y-84070000D01*
X129168730Y-84266317D01*
X129168734Y-84266326D01*
X129264865Y-84472482D01*
X129395342Y-84658820D01*
X129556179Y-84819657D01*
X129742517Y-84950134D01*
X129948673Y-85046265D01*
X129948682Y-85046269D01*
X130168389Y-85105139D01*
X130168400Y-85105141D01*
X130338237Y-85120000D01*
X130545000Y-85120000D01*
X130545000Y-84135686D01*
X130556955Y-84147641D01*
X130669852Y-84205165D01*
X130763519Y-84220000D01*
X130826481Y-84220000D01*
X130920148Y-84205165D01*
X131033045Y-84147641D01*
X131045000Y-84135686D01*
X131045000Y-85120000D01*
X131251763Y-85120000D01*
X131421599Y-85105141D01*
X131421610Y-85105139D01*
X131641317Y-85046269D01*
X131641326Y-85046265D01*
X131847482Y-84950134D01*
X132033820Y-84819657D01*
X132194657Y-84658820D01*
X132325134Y-84472482D01*
X132421265Y-84266326D01*
X132421269Y-84266317D01*
X132473872Y-84070000D01*
X131110686Y-84070000D01*
X131122641Y-84058045D01*
X131180165Y-83945148D01*
X131199986Y-83820001D01*
X136709532Y-83820001D01*
X136729364Y-84046686D01*
X136729366Y-84046697D01*
X136788258Y-84266488D01*
X136788261Y-84266497D01*
X136884431Y-84472732D01*
X136884432Y-84472734D01*
X137014954Y-84659141D01*
X137175858Y-84820045D01*
X137175861Y-84820047D01*
X137362266Y-84950568D01*
X137568504Y-85046739D01*
X137788308Y-85105635D01*
X137958216Y-85120500D01*
X138871784Y-85120500D01*
X139041692Y-85105635D01*
X139261496Y-85046739D01*
X139467734Y-84950568D01*
X139654139Y-84820047D01*
X139815047Y-84659139D01*
X139945568Y-84472734D01*
X140041739Y-84266496D01*
X140100635Y-84046692D01*
X140120468Y-83820000D01*
X140100635Y-83593308D01*
X140041739Y-83373504D01*
X139945568Y-83167266D01*
X139815047Y-82980861D01*
X139815045Y-82980858D01*
X139654141Y-82819954D01*
X139467734Y-82689432D01*
X139467728Y-82689429D01*
X139409725Y-82662382D01*
X139357285Y-82616210D01*
X139338133Y-82549017D01*
X139358348Y-82482135D01*
X139409725Y-82437618D01*
X139467734Y-82410568D01*
X139654139Y-82280047D01*
X139815047Y-82119139D01*
X139945568Y-81932734D01*
X140041739Y-81726496D01*
X140100635Y-81506692D01*
X140120468Y-81280000D01*
X140100635Y-81053308D01*
X140041739Y-80833504D01*
X139945568Y-80627266D01*
X139815047Y-80440861D01*
X139815045Y-80440858D01*
X139654141Y-80279954D01*
X139467734Y-80149432D01*
X139467728Y-80149429D01*
X139409725Y-80122382D01*
X139357285Y-80076210D01*
X139338133Y-80009017D01*
X139358348Y-79942135D01*
X139409725Y-79897618D01*
X139467734Y-79870568D01*
X139654139Y-79740047D01*
X139815047Y-79579139D01*
X139945568Y-79392734D01*
X140041739Y-79186496D01*
X140100635Y-78966692D01*
X140120468Y-78740001D01*
X146522532Y-78740001D01*
X146542364Y-78966686D01*
X146542366Y-78966697D01*
X146601258Y-79186488D01*
X146601261Y-79186497D01*
X146697431Y-79392732D01*
X146697432Y-79392734D01*
X146827954Y-79579141D01*
X146988858Y-79740045D01*
X146988861Y-79740047D01*
X147175266Y-79870568D01*
X147381504Y-79966739D01*
X147601308Y-80025635D01*
X147763230Y-80039801D01*
X147827998Y-80045468D01*
X147828000Y-80045468D01*
X147828002Y-80045468D01*
X147884673Y-80040509D01*
X148054692Y-80025635D01*
X148274496Y-79966739D01*
X148480734Y-79870568D01*
X148667139Y-79740047D01*
X148828047Y-79579139D01*
X148958568Y-79392734D01*
X149054739Y-79186496D01*
X149113635Y-78966692D01*
X149133468Y-78740000D01*
X149113635Y-78513308D01*
X149054739Y-78293504D01*
X148958568Y-78087266D01*
X148828047Y-77900861D01*
X148828045Y-77900858D01*
X148667141Y-77739954D01*
X148480734Y-77609432D01*
X148480732Y-77609431D01*
X148274497Y-77513261D01*
X148274488Y-77513258D01*
X148054697Y-77454366D01*
X148054693Y-77454365D01*
X148054692Y-77454365D01*
X148054691Y-77454364D01*
X148054686Y-77454364D01*
X147828002Y-77434532D01*
X147827998Y-77434532D01*
X147601313Y-77454364D01*
X147601302Y-77454366D01*
X147381511Y-77513258D01*
X147381502Y-77513261D01*
X147175267Y-77609431D01*
X147175265Y-77609432D01*
X146988858Y-77739954D01*
X146827954Y-77900858D01*
X146697432Y-78087265D01*
X146697431Y-78087267D01*
X146601261Y-78293502D01*
X146601258Y-78293511D01*
X146542366Y-78513302D01*
X146542364Y-78513313D01*
X146522532Y-78739998D01*
X146522532Y-78740001D01*
X140120468Y-78740001D01*
X140120468Y-78740000D01*
X140100635Y-78513308D01*
X140041739Y-78293504D01*
X139945568Y-78087266D01*
X139815047Y-77900861D01*
X139815045Y-77900858D01*
X139654141Y-77739954D01*
X139467734Y-77609432D01*
X139467728Y-77609429D01*
X139409725Y-77582382D01*
X139357285Y-77536210D01*
X139338133Y-77469017D01*
X139358348Y-77402135D01*
X139409725Y-77357618D01*
X139467734Y-77330568D01*
X139654139Y-77200047D01*
X139815047Y-77039139D01*
X139945568Y-76852734D01*
X140041739Y-76646496D01*
X140100635Y-76426692D01*
X140120468Y-76200000D01*
X140100635Y-75973308D01*
X140041739Y-75753504D01*
X139945568Y-75547266D01*
X139815047Y-75360861D01*
X139815045Y-75360858D01*
X139654141Y-75199954D01*
X139467734Y-75069432D01*
X139467732Y-75069431D01*
X139261497Y-74973261D01*
X139261488Y-74973258D01*
X139041697Y-74914366D01*
X139041687Y-74914364D01*
X138871784Y-74899500D01*
X137958216Y-74899500D01*
X137788312Y-74914364D01*
X137788302Y-74914366D01*
X137568511Y-74973258D01*
X137568502Y-74973261D01*
X137362267Y-75069431D01*
X137362265Y-75069432D01*
X137175858Y-75199954D01*
X137014954Y-75360858D01*
X136884432Y-75547265D01*
X136884431Y-75547267D01*
X136788261Y-75753502D01*
X136788258Y-75753511D01*
X136729366Y-75973302D01*
X136729364Y-75973313D01*
X136709532Y-76199998D01*
X136709532Y-76200001D01*
X136729364Y-76426686D01*
X136729366Y-76426697D01*
X136788258Y-76646488D01*
X136788261Y-76646497D01*
X136884431Y-76852732D01*
X136884432Y-76852734D01*
X137014954Y-77039141D01*
X137175858Y-77200045D01*
X137175861Y-77200047D01*
X137362266Y-77330568D01*
X137420275Y-77357618D01*
X137472714Y-77403791D01*
X137491866Y-77470984D01*
X137471650Y-77537865D01*
X137420275Y-77582382D01*
X137362267Y-77609431D01*
X137362265Y-77609432D01*
X137175858Y-77739954D01*
X137014954Y-77900858D01*
X136884432Y-78087265D01*
X136884431Y-78087267D01*
X136788261Y-78293502D01*
X136788258Y-78293511D01*
X136729366Y-78513302D01*
X136729364Y-78513313D01*
X136709532Y-78739998D01*
X136709532Y-78740001D01*
X136729364Y-78966686D01*
X136729366Y-78966697D01*
X136788258Y-79186488D01*
X136788261Y-79186497D01*
X136884431Y-79392732D01*
X136884432Y-79392734D01*
X137014954Y-79579141D01*
X137175858Y-79740045D01*
X137175861Y-79740047D01*
X137362266Y-79870568D01*
X137420275Y-79897618D01*
X137472714Y-79943791D01*
X137491866Y-80010984D01*
X137471650Y-80077865D01*
X137420275Y-80122382D01*
X137362267Y-80149431D01*
X137362265Y-80149432D01*
X137175858Y-80279954D01*
X137014954Y-80440858D01*
X136884432Y-80627265D01*
X136884431Y-80627267D01*
X136788261Y-80833502D01*
X136788258Y-80833511D01*
X136729366Y-81053302D01*
X136729364Y-81053313D01*
X136709532Y-81279998D01*
X136709532Y-81280001D01*
X136729364Y-81506686D01*
X136729366Y-81506697D01*
X136788258Y-81726488D01*
X136788261Y-81726497D01*
X136884431Y-81932732D01*
X136884432Y-81932734D01*
X137014954Y-82119141D01*
X137175858Y-82280045D01*
X137175861Y-82280047D01*
X137362266Y-82410568D01*
X137420275Y-82437618D01*
X137472714Y-82483791D01*
X137491866Y-82550984D01*
X137471650Y-82617865D01*
X137420275Y-82662382D01*
X137362267Y-82689431D01*
X137362265Y-82689432D01*
X137175858Y-82819954D01*
X137014954Y-82980858D01*
X136884432Y-83167265D01*
X136884431Y-83167267D01*
X136788261Y-83373502D01*
X136788258Y-83373511D01*
X136729366Y-83593302D01*
X136729364Y-83593313D01*
X136709532Y-83819998D01*
X136709532Y-83820001D01*
X131199986Y-83820001D01*
X131199986Y-83820000D01*
X131180165Y-83694852D01*
X131122641Y-83581955D01*
X131110686Y-83570000D01*
X132473872Y-83570000D01*
X132473872Y-83569999D01*
X132421269Y-83373682D01*
X132421265Y-83373673D01*
X132325134Y-83167517D01*
X132194657Y-82981179D01*
X132033820Y-82820342D01*
X131847482Y-82689865D01*
X131789133Y-82662657D01*
X131736694Y-82616484D01*
X131717542Y-82549291D01*
X131737758Y-82482410D01*
X131789129Y-82437895D01*
X131847734Y-82410568D01*
X132034139Y-82280047D01*
X132195047Y-82119139D01*
X132325568Y-81932734D01*
X132421739Y-81726496D01*
X132480635Y-81506692D01*
X132500468Y-81280000D01*
X132480635Y-81053308D01*
X132421739Y-80833504D01*
X132325568Y-80627266D01*
X132195047Y-80440861D01*
X132195045Y-80440858D01*
X132034141Y-80279954D01*
X131847734Y-80149432D01*
X131847728Y-80149429D01*
X131789725Y-80122382D01*
X131737285Y-80076210D01*
X131718133Y-80009017D01*
X131738348Y-79942135D01*
X131789725Y-79897618D01*
X131847734Y-79870568D01*
X132034139Y-79740047D01*
X132195047Y-79579139D01*
X132325568Y-79392734D01*
X132421739Y-79186496D01*
X132480635Y-78966692D01*
X132500468Y-78740000D01*
X132480635Y-78513308D01*
X132421739Y-78293504D01*
X132325568Y-78087266D01*
X132195047Y-77900861D01*
X132195045Y-77900858D01*
X132034143Y-77739956D01*
X132009536Y-77722726D01*
X131965912Y-77668149D01*
X131958719Y-77598650D01*
X131990241Y-77536296D01*
X132050471Y-77500882D01*
X132067404Y-77497861D01*
X132102483Y-77494091D01*
X132237331Y-77443796D01*
X132352546Y-77357546D01*
X132438796Y-77242331D01*
X132489091Y-77107483D01*
X132495500Y-77047873D01*
X132495499Y-75352128D01*
X132489091Y-75292517D01*
X132454567Y-75199954D01*
X132438797Y-75157671D01*
X132438793Y-75157664D01*
X132352547Y-75042455D01*
X132352544Y-75042452D01*
X132237335Y-74956206D01*
X132237328Y-74956202D01*
X132102482Y-74905908D01*
X132102483Y-74905908D01*
X132042883Y-74899501D01*
X132042881Y-74899500D01*
X132042873Y-74899500D01*
X132042864Y-74899500D01*
X129547129Y-74899500D01*
X129547123Y-74899501D01*
X129487516Y-74905908D01*
X129352671Y-74956202D01*
X129352664Y-74956206D01*
X129237455Y-75042452D01*
X129237452Y-75042455D01*
X129151206Y-75157664D01*
X129151202Y-75157671D01*
X129100908Y-75292517D01*
X129094501Y-75352116D01*
X129094501Y-75352123D01*
X129094500Y-75352135D01*
X129094500Y-77047870D01*
X129094501Y-77047876D01*
X129100908Y-77107483D01*
X129151202Y-77242328D01*
X129151206Y-77242335D01*
X129237452Y-77357544D01*
X129237455Y-77357547D01*
X129352664Y-77443793D01*
X129352671Y-77443797D01*
X129397618Y-77460561D01*
X129487517Y-77494091D01*
X129522596Y-77497862D01*
X129587144Y-77524599D01*
X129626993Y-77581991D01*
X129629488Y-77651816D01*
X129593836Y-77711905D01*
X129580464Y-77722725D01*
X129555858Y-77739954D01*
X129394954Y-77900858D01*
X129264432Y-78087265D01*
X129264431Y-78087267D01*
X129168261Y-78293502D01*
X129168258Y-78293511D01*
X129109366Y-78513302D01*
X129109364Y-78513313D01*
X129089532Y-78739998D01*
X129089532Y-78740001D01*
X129109364Y-78966686D01*
X129109366Y-78966697D01*
X129168258Y-79186488D01*
X129168261Y-79186497D01*
X129264431Y-79392732D01*
X129264432Y-79392734D01*
X129394954Y-79579141D01*
X129555858Y-79740045D01*
X129555861Y-79740047D01*
X129742266Y-79870568D01*
X129800275Y-79897618D01*
X129852714Y-79943791D01*
X129871866Y-80010984D01*
X129851650Y-80077865D01*
X129800275Y-80122382D01*
X129742267Y-80149431D01*
X129742265Y-80149432D01*
X129555858Y-80279954D01*
X129394954Y-80440858D01*
X129264432Y-80627265D01*
X129264431Y-80627267D01*
X129168261Y-80833502D01*
X129168258Y-80833511D01*
X129109366Y-81053302D01*
X129109364Y-81053313D01*
X129089532Y-81279998D01*
X129089532Y-81280001D01*
X76200500Y-81280001D01*
X76200500Y-73740001D01*
X112944532Y-73740001D01*
X112964364Y-73966686D01*
X112964366Y-73966697D01*
X113023258Y-74186488D01*
X113023261Y-74186497D01*
X113119431Y-74392732D01*
X113119432Y-74392734D01*
X113249954Y-74579141D01*
X113410858Y-74740045D01*
X113410861Y-74740047D01*
X113597266Y-74870568D01*
X113803504Y-74966739D01*
X113803509Y-74966740D01*
X113803511Y-74966741D01*
X113856415Y-74980916D01*
X114023308Y-75025635D01*
X114185230Y-75039801D01*
X114249998Y-75045468D01*
X114250000Y-75045468D01*
X114250002Y-75045468D01*
X114306673Y-75040509D01*
X114476692Y-75025635D01*
X114696496Y-74966739D01*
X114902734Y-74870568D01*
X115089139Y-74740047D01*
X115250047Y-74579139D01*
X115380568Y-74392734D01*
X115476739Y-74186496D01*
X115535635Y-73966692D01*
X115555468Y-73740000D01*
X115548469Y-73660001D01*
X122138532Y-73660001D01*
X122158364Y-73886686D01*
X122158366Y-73886697D01*
X122217258Y-74106488D01*
X122217261Y-74106497D01*
X122313431Y-74312732D01*
X122313432Y-74312734D01*
X122443954Y-74499141D01*
X122604858Y-74660045D01*
X122604861Y-74660047D01*
X122791266Y-74790568D01*
X122997504Y-74886739D01*
X123217308Y-74945635D01*
X123379230Y-74959801D01*
X123443998Y-74965468D01*
X123444000Y-74965468D01*
X123444002Y-74965468D01*
X123500673Y-74960509D01*
X123670692Y-74945635D01*
X123890496Y-74886739D01*
X124096734Y-74790568D01*
X124283139Y-74660047D01*
X124444047Y-74499139D01*
X124574568Y-74312734D01*
X124670739Y-74106496D01*
X124729635Y-73886692D01*
X124749468Y-73660000D01*
X124729635Y-73433308D01*
X124670739Y-73213504D01*
X124574568Y-73007266D01*
X124444047Y-72820861D01*
X124444045Y-72820858D01*
X124283141Y-72659954D01*
X124096734Y-72529432D01*
X124096732Y-72529431D01*
X123890497Y-72433261D01*
X123890488Y-72433258D01*
X123670697Y-72374366D01*
X123670693Y-72374365D01*
X123670692Y-72374365D01*
X123670691Y-72374364D01*
X123670686Y-72374364D01*
X123444002Y-72354532D01*
X123443998Y-72354532D01*
X123217313Y-72374364D01*
X123217302Y-72374366D01*
X122997511Y-72433258D01*
X122997502Y-72433261D01*
X122791267Y-72529431D01*
X122791265Y-72529432D01*
X122604858Y-72659954D01*
X122443954Y-72820858D01*
X122313432Y-73007265D01*
X122313431Y-73007267D01*
X122217261Y-73213502D01*
X122217258Y-73213511D01*
X122158366Y-73433302D01*
X122158364Y-73433313D01*
X122138532Y-73659998D01*
X122138532Y-73660001D01*
X115548469Y-73660001D01*
X115535635Y-73513308D01*
X115476739Y-73293504D01*
X115380568Y-73087266D01*
X115250047Y-72900861D01*
X115250045Y-72900858D01*
X115089141Y-72739954D01*
X114902734Y-72609432D01*
X114902732Y-72609431D01*
X114696497Y-72513261D01*
X114696488Y-72513258D01*
X114476697Y-72454366D01*
X114476693Y-72454365D01*
X114476692Y-72454365D01*
X114476691Y-72454364D01*
X114476686Y-72454364D01*
X114250002Y-72434532D01*
X114249998Y-72434532D01*
X114023313Y-72454364D01*
X114023302Y-72454366D01*
X113803511Y-72513258D01*
X113803502Y-72513261D01*
X113597267Y-72609431D01*
X113597265Y-72609432D01*
X113410858Y-72739954D01*
X113249954Y-72900858D01*
X113119432Y-73087265D01*
X113119431Y-73087267D01*
X113023261Y-73293502D01*
X113023258Y-73293511D01*
X112964366Y-73513302D01*
X112964364Y-73513313D01*
X112944532Y-73739998D01*
X112944532Y-73740001D01*
X76200500Y-73740001D01*
X76200500Y-63580001D01*
X112944532Y-63580001D01*
X112964364Y-63806686D01*
X112964366Y-63806697D01*
X113023258Y-64026488D01*
X113023261Y-64026497D01*
X113119431Y-64232732D01*
X113119432Y-64232734D01*
X113249954Y-64419141D01*
X113410858Y-64580045D01*
X113410861Y-64580047D01*
X113597266Y-64710568D01*
X113803504Y-64806739D01*
X114023308Y-64865635D01*
X114185230Y-64879801D01*
X114249998Y-64885468D01*
X114250000Y-64885468D01*
X114250002Y-64885468D01*
X114306673Y-64880509D01*
X114476692Y-64865635D01*
X114696496Y-64806739D01*
X114902734Y-64710568D01*
X115089139Y-64580047D01*
X115250047Y-64419139D01*
X115380568Y-64232734D01*
X115476739Y-64026496D01*
X115535635Y-63806692D01*
X115555468Y-63580000D01*
X115548469Y-63500001D01*
X122138532Y-63500001D01*
X122158364Y-63726686D01*
X122158366Y-63726697D01*
X122217258Y-63946488D01*
X122217261Y-63946497D01*
X122313431Y-64152732D01*
X122313432Y-64152734D01*
X122443954Y-64339141D01*
X122604858Y-64500045D01*
X122604861Y-64500047D01*
X122791266Y-64630568D01*
X122997504Y-64726739D01*
X123217308Y-64785635D01*
X123379230Y-64799801D01*
X123443998Y-64805468D01*
X123444000Y-64805468D01*
X123444002Y-64805468D01*
X123500673Y-64800509D01*
X123670692Y-64785635D01*
X123890496Y-64726739D01*
X124096734Y-64630568D01*
X124283139Y-64500047D01*
X124444047Y-64339139D01*
X124574568Y-64152734D01*
X124670739Y-63946496D01*
X124729635Y-63726692D01*
X124749468Y-63500000D01*
X124729635Y-63273308D01*
X124688290Y-63119006D01*
X146422700Y-63119006D01*
X146441864Y-63350297D01*
X146441866Y-63350308D01*
X146498842Y-63575300D01*
X146592075Y-63787848D01*
X146719016Y-63982147D01*
X146719019Y-63982151D01*
X146719021Y-63982153D01*
X146813803Y-64085114D01*
X146844724Y-64147767D01*
X146836864Y-64217193D01*
X146792716Y-64271348D01*
X146765906Y-64285277D01*
X146685669Y-64315203D01*
X146685664Y-64315206D01*
X146570455Y-64401452D01*
X146570452Y-64401455D01*
X146484206Y-64516664D01*
X146484202Y-64516671D01*
X146433908Y-64651517D01*
X146427560Y-64710567D01*
X146427501Y-64711123D01*
X146427500Y-64711135D01*
X146427500Y-66606870D01*
X146427501Y-66606876D01*
X146433908Y-66666483D01*
X146484202Y-66801328D01*
X146484206Y-66801335D01*
X146570452Y-66916544D01*
X146570455Y-66916547D01*
X146685664Y-67002793D01*
X146685671Y-67002797D01*
X146820517Y-67053091D01*
X146820516Y-67053091D01*
X146827444Y-67053835D01*
X146880127Y-67059500D01*
X147535965Y-67059499D01*
X147603002Y-67079183D01*
X147648757Y-67131987D01*
X147658701Y-67201146D01*
X147629676Y-67264702D01*
X147570898Y-67302476D01*
X147568057Y-67303274D01*
X147381508Y-67353259D01*
X147381502Y-67353261D01*
X147175267Y-67449431D01*
X147175265Y-67449432D01*
X146988858Y-67579954D01*
X146827954Y-67740858D01*
X146697432Y-67927265D01*
X146697431Y-67927267D01*
X146601261Y-68133502D01*
X146601258Y-68133511D01*
X146542366Y-68353302D01*
X146542364Y-68353313D01*
X146522532Y-68579998D01*
X146522532Y-68580001D01*
X146542364Y-68806686D01*
X146542366Y-68806697D01*
X146601258Y-69026488D01*
X146601261Y-69026497D01*
X146697431Y-69232732D01*
X146697432Y-69232734D01*
X146827954Y-69419141D01*
X146988858Y-69580045D01*
X146988861Y-69580047D01*
X147175266Y-69710568D01*
X147381504Y-69806739D01*
X147601308Y-69865635D01*
X147763230Y-69879801D01*
X147827998Y-69885468D01*
X147828000Y-69885468D01*
X147828002Y-69885468D01*
X147884673Y-69880509D01*
X148054692Y-69865635D01*
X148274496Y-69806739D01*
X148480734Y-69710568D01*
X148667139Y-69580047D01*
X148828047Y-69419139D01*
X148958568Y-69232734D01*
X149054739Y-69026496D01*
X149113635Y-68806692D01*
X149133468Y-68580000D01*
X149113635Y-68353308D01*
X149054739Y-68133504D01*
X148958568Y-67927266D01*
X148828047Y-67740861D01*
X148828045Y-67740858D01*
X148667141Y-67579954D01*
X148480734Y-67449432D01*
X148480732Y-67449431D01*
X148274497Y-67353261D01*
X148274488Y-67353258D01*
X148087942Y-67303274D01*
X148028281Y-67266909D01*
X147997752Y-67204062D01*
X148006047Y-67134687D01*
X148050532Y-67080809D01*
X148117084Y-67059534D01*
X148120005Y-67059499D01*
X148775872Y-67059499D01*
X148835483Y-67053091D01*
X148970331Y-67002796D01*
X149085546Y-66916546D01*
X149171796Y-66801331D01*
X149222091Y-66666483D01*
X149228500Y-66606873D01*
X149228499Y-64711128D01*
X149222091Y-64651517D01*
X149214277Y-64630567D01*
X149171797Y-64516671D01*
X149171793Y-64516664D01*
X149085547Y-64401455D01*
X149085544Y-64401452D01*
X148970335Y-64315206D01*
X148970328Y-64315202D01*
X148890094Y-64285277D01*
X148834160Y-64243406D01*
X148809743Y-64177941D01*
X148824595Y-64109668D01*
X148842190Y-64085121D01*
X148936979Y-63982153D01*
X149063924Y-63787849D01*
X149157157Y-63575300D01*
X149214134Y-63350305D01*
X149220514Y-63273308D01*
X149233300Y-63119006D01*
X149233300Y-63118993D01*
X149214135Y-62887702D01*
X149214133Y-62887691D01*
X149157157Y-62662699D01*
X149063924Y-62450151D01*
X148936983Y-62255852D01*
X148936980Y-62255849D01*
X148936979Y-62255847D01*
X148779784Y-62085087D01*
X148779779Y-62085083D01*
X148779777Y-62085081D01*
X148596634Y-61942535D01*
X148596628Y-61942531D01*
X148392504Y-61832064D01*
X148392495Y-61832061D01*
X148172984Y-61756702D01*
X148001282Y-61728050D01*
X147944049Y-61718500D01*
X147711951Y-61718500D01*
X147666164Y-61726140D01*
X147483015Y-61756702D01*
X147263504Y-61832061D01*
X147263495Y-61832064D01*
X147059371Y-61942531D01*
X147059365Y-61942535D01*
X146876222Y-62085081D01*
X146876219Y-62085084D01*
X146719016Y-62255852D01*
X146592075Y-62450151D01*
X146498842Y-62662699D01*
X146441866Y-62887691D01*
X146441864Y-62887702D01*
X146422700Y-63118993D01*
X146422700Y-63119006D01*
X124688290Y-63119006D01*
X124670739Y-63053504D01*
X124574568Y-62847266D01*
X124444047Y-62660861D01*
X124444045Y-62660858D01*
X124283141Y-62499954D01*
X124096734Y-62369432D01*
X124096732Y-62369431D01*
X123890497Y-62273261D01*
X123890488Y-62273258D01*
X123670697Y-62214366D01*
X123670693Y-62214365D01*
X123670692Y-62214365D01*
X123670691Y-62214364D01*
X123670686Y-62214364D01*
X123444002Y-62194532D01*
X123443998Y-62194532D01*
X123217313Y-62214364D01*
X123217302Y-62214366D01*
X122997511Y-62273258D01*
X122997502Y-62273261D01*
X122791267Y-62369431D01*
X122791265Y-62369432D01*
X122604858Y-62499954D01*
X122443954Y-62660858D01*
X122313432Y-62847265D01*
X122313431Y-62847267D01*
X122217261Y-63053502D01*
X122217258Y-63053511D01*
X122158366Y-63273302D01*
X122158364Y-63273313D01*
X122138532Y-63499998D01*
X122138532Y-63500001D01*
X115548469Y-63500001D01*
X115535635Y-63353308D01*
X115476739Y-63133504D01*
X115380568Y-62927266D01*
X115250047Y-62740861D01*
X115250045Y-62740858D01*
X115089141Y-62579954D01*
X114902734Y-62449432D01*
X114902732Y-62449431D01*
X114696497Y-62353261D01*
X114696488Y-62353258D01*
X114476697Y-62294366D01*
X114476693Y-62294365D01*
X114476692Y-62294365D01*
X114476691Y-62294364D01*
X114476686Y-62294364D01*
X114250002Y-62274532D01*
X114249998Y-62274532D01*
X114023313Y-62294364D01*
X114023302Y-62294366D01*
X113803511Y-62353258D01*
X113803502Y-62353261D01*
X113597267Y-62449431D01*
X113597265Y-62449432D01*
X113410858Y-62579954D01*
X113249954Y-62740858D01*
X113119432Y-62927265D01*
X113119431Y-62927267D01*
X113023261Y-63133502D01*
X113023258Y-63133511D01*
X112964366Y-63353302D01*
X112964364Y-63353313D01*
X112944532Y-63579998D01*
X112944532Y-63580001D01*
X76200500Y-63580001D01*
X76200500Y-60961740D01*
X76200598Y-60958263D01*
X76202140Y-60930782D01*
X76206995Y-60844333D01*
X76217401Y-60672304D01*
X76218160Y-60665706D01*
X76240576Y-60533780D01*
X76241277Y-60529656D01*
X76253432Y-60463324D01*
X76268562Y-60380763D01*
X76269961Y-60374810D01*
X76309387Y-60237956D01*
X76353270Y-60097135D01*
X76355158Y-60091921D01*
X76410397Y-59958565D01*
X76470343Y-59825370D01*
X76472599Y-59820861D01*
X76542958Y-59693557D01*
X76618228Y-59569044D01*
X76620693Y-59565286D01*
X76704461Y-59447226D01*
X76706145Y-59444967D01*
X76794932Y-59331638D01*
X76797472Y-59328605D01*
X76894052Y-59220531D01*
X76896373Y-59218077D01*
X76998077Y-59116373D01*
X77000531Y-59114052D01*
X77108605Y-59017472D01*
X77111638Y-59014932D01*
X77224967Y-58926145D01*
X77227226Y-58924461D01*
X77345286Y-58840693D01*
X77349044Y-58838228D01*
X77473561Y-58762956D01*
X77600861Y-58692599D01*
X77605370Y-58690343D01*
X77738565Y-58630397D01*
X77871921Y-58575158D01*
X77877135Y-58573270D01*
X78017956Y-58529387D01*
X78154810Y-58489961D01*
X78160763Y-58488562D01*
X78243324Y-58473432D01*
X78309656Y-58461277D01*
X78357941Y-58453072D01*
X78445706Y-58438160D01*
X78452304Y-58437401D01*
X78624333Y-58426995D01*
X78710782Y-58422140D01*
X78738263Y-58420598D01*
X78741740Y-58420500D01*
X149858260Y-58420500D01*
X149861737Y-58420598D01*
G37*
%TD.AperFunction*%
%TD*%
M02*
