%TF.GenerationSoftware,KiCad,Pcbnew,7.0.9-7.0.9~ubuntu22.04.1*%
%TF.CreationDate,2024-01-09T22:45:08-05:00*%
%TF.ProjectId,AoE_Too_Hot,416f455f-546f-46f5-9f48-6f742e6b6963,rev?*%
%TF.SameCoordinates,Original*%
%TF.FileFunction,Copper,L1,Top*%
%TF.FilePolarity,Positive*%
%FSLAX46Y46*%
G04 Gerber Fmt 4.6, Leading zero omitted, Abs format (unit mm)*
G04 Created by KiCad (PCBNEW 7.0.9-7.0.9~ubuntu22.04.1) date 2024-01-09 22:45:08*
%MOMM*%
%LPD*%
G01*
G04 APERTURE LIST*
%TA.AperFunction,SMDPad,CuDef*%
%ADD10R,5.000000X5.000000*%
%TD*%
%TA.AperFunction,SMDPad,CuDef*%
%ADD11R,4.000000X4.000000*%
%TD*%
%TA.AperFunction,ComponentPad*%
%ADD12C,1.800000*%
%TD*%
%TA.AperFunction,ComponentPad*%
%ADD13R,1.800000X1.800000*%
%TD*%
%TA.AperFunction,ComponentPad*%
%ADD14R,2.400000X1.600000*%
%TD*%
%TA.AperFunction,ComponentPad*%
%ADD15O,2.400000X1.600000*%
%TD*%
%TA.AperFunction,ComponentPad*%
%ADD16C,1.600000*%
%TD*%
%TA.AperFunction,ComponentPad*%
%ADD17O,1.600000X1.600000*%
%TD*%
%TA.AperFunction,ViaPad*%
%ADD18C,0.800000*%
%TD*%
%TA.AperFunction,Conductor*%
%ADD19C,0.250000*%
%TD*%
G04 APERTURE END LIST*
D10*
%TO.P,BT1,1,+*%
%TO.N,Net-(BT1-+)*%
X81030000Y-78740000D03*
X106930000Y-78740000D03*
D11*
%TO.P,BT1,2,-*%
%TO.N,GND*%
X93980000Y-78740000D03*
%TD*%
D12*
%TO.P,D1,2,A*%
%TO.N,Net-(BT1-+)*%
X147828000Y-63119000D03*
D13*
%TO.P,D1,1,K*%
%TO.N,Net-(D1-K)*%
X147828000Y-65659000D03*
%TD*%
D14*
%TO.P,U1,1*%
%TO.N,Net-(R4-Pad2)*%
X130795000Y-76200000D03*
D15*
%TO.P,U1,2,-*%
%TO.N,Net-(U1A--)*%
X130795000Y-78740000D03*
%TO.P,U1,3,+*%
%TO.N,Net-(U1A-+)*%
X130795000Y-81280000D03*
%TO.P,U1,4,V-*%
%TO.N,GND*%
X130795000Y-83820000D03*
%TO.P,U1,5,+*%
%TO.N,unconnected-(U1B-+-Pad5)*%
X138415000Y-83820000D03*
%TO.P,U1,6,-*%
%TO.N,unconnected-(U1B---Pad6)*%
X138415000Y-81280000D03*
%TO.P,U1,7*%
%TO.N,unconnected-(U1-Pad7)*%
X138415000Y-78740000D03*
%TO.P,U1,8,V+*%
%TO.N,Net-(BT1-+)*%
X138415000Y-76200000D03*
%TD*%
D16*
%TO.P,TH1,1*%
%TO.N,Net-(U1A--)*%
X123444000Y-85090000D03*
D17*
%TO.P,TH1,2*%
%TO.N,GND*%
X123444000Y-95250000D03*
%TD*%
D16*
%TO.P,R1,1*%
%TO.N,Net-(BT1-+)*%
X114250000Y-63580000D03*
D17*
%TO.P,R1,2*%
%TO.N,Net-(U1A-+)*%
X114250000Y-73740000D03*
%TD*%
%TO.P,R4,2*%
%TO.N,Net-(R4-Pad2)*%
X147828000Y-78740000D03*
D16*
%TO.P,R4,1*%
%TO.N,Net-(D1-K)*%
X147828000Y-68580000D03*
%TD*%
%TO.P,R2,1*%
%TO.N,Net-(U1A-+)*%
X114250000Y-85090000D03*
D17*
%TO.P,R2,2*%
%TO.N,GND*%
X114250000Y-95250000D03*
%TD*%
D16*
%TO.P,R3,1*%
%TO.N,Net-(BT1-+)*%
X123444000Y-63500000D03*
D17*
%TO.P,R3,2*%
%TO.N,Net-(U1A--)*%
X123444000Y-73660000D03*
%TD*%
D18*
%TO.N,GND*%
X93980000Y-77978000D03*
%TD*%
D19*
%TO.N,Net-(U1A-+)*%
X114250000Y-85090000D02*
X118999000Y-85090000D01*
X118999000Y-85090000D02*
X121412000Y-87503000D01*
X124572000Y-87503000D02*
X130795000Y-81280000D01*
X121412000Y-87503000D02*
X124572000Y-87503000D01*
%TO.N,Net-(R4-Pad2)*%
X130795000Y-76200000D02*
X131920000Y-77325000D01*
X131920000Y-77325000D02*
X146413000Y-77325000D01*
X146413000Y-77325000D02*
X147828000Y-78740000D01*
%TO.N,Net-(U1A--)*%
X130795000Y-78740000D02*
X123444000Y-78740000D01*
%TO.N,Net-(U1A-+)*%
X114250000Y-73740000D02*
X114250000Y-85090000D01*
%TO.N,Net-(U1A--)*%
X123444000Y-73660000D02*
X123444000Y-78740000D01*
X123444000Y-78740000D02*
X123444000Y-85090000D01*
%TO.N,GND*%
X93980000Y-78740000D02*
X93980000Y-77978000D01*
%TO.N,Net-(D1-K)*%
X147828000Y-65659000D02*
X147828000Y-68580000D01*
%TO.N,Net-(BT1-+)*%
X138415000Y-76200000D02*
X138415000Y-72532000D01*
X138415000Y-72532000D02*
X147828000Y-63119000D01*
X123444000Y-63500000D02*
X125715000Y-63500000D01*
X125715000Y-63500000D02*
X138415000Y-76200000D01*
X114250000Y-63580000D02*
X123364000Y-63580000D01*
X123364000Y-63580000D02*
X123444000Y-63500000D01*
X106930000Y-78740000D02*
X106930000Y-70900000D01*
X106930000Y-70900000D02*
X114250000Y-63580000D01*
X86487000Y-78740000D02*
X94107000Y-86360000D01*
X81030000Y-78740000D02*
X86487000Y-78740000D01*
X94107000Y-86360000D02*
X101727000Y-78740000D01*
X101727000Y-78740000D02*
X106930000Y-78740000D01*
%TD*%
M02*
