M48
; DRILL file {KiCad 7.0.9-7.0.9~ubuntu22.04.1} date Tue 09 Jan 2024 10:45:04 PM EST
; FORMAT={-:-/ absolute / inch / decimal}
; #@! TF.CreationDate,2024-01-09T22:45:04-05:00
; #@! TF.GenerationSoftware,Kicad,Pcbnew,7.0.9-7.0.9~ubuntu22.04.1
; #@! TF.FileFunction,Plated,1,2,PTH
FMAT,2
INCH
; #@! TA.AperFunction,Plated,PTH,ViaDrill
T1C0.0157
; #@! TA.AperFunction,Plated,PTH,ComponentDrill
T2C0.0315
; #@! TA.AperFunction,Plated,PTH,ComponentDrill
T3C0.0354
%
G90
G05
T1
X3.7Y-3.07
T2
X4.498Y-2.5031
X4.498Y-2.9031
X4.498Y-3.35
X4.498Y-3.75
X4.86Y-2.5
X4.86Y-2.9
X4.86Y-3.35
X4.86Y-3.75
X5.1494Y-3.0
X5.1494Y-3.1
X5.1494Y-3.2
X5.1494Y-3.3
X5.4494Y-3.0
X5.4494Y-3.1
X5.4494Y-3.2
X5.4494Y-3.3
X5.82Y-2.7
X5.82Y-3.1
T3
X5.82Y-2.485
X5.82Y-2.585
T0
M30
