%TF.GenerationSoftware,KiCad,Pcbnew,7.0.9-7.0.9~ubuntu22.04.1*%
%TF.CreationDate,2024-01-09T22:45:08-05:00*%
%TF.ProjectId,AoE_Too_Hot,416f455f-546f-46f5-9f48-6f742e6b6963,rev?*%
%TF.SameCoordinates,Original*%
%TF.FileFunction,Legend,Top*%
%TF.FilePolarity,Positive*%
%FSLAX46Y46*%
G04 Gerber Fmt 4.6, Leading zero omitted, Abs format (unit mm)*
G04 Created by KiCad (PCBNEW 7.0.9-7.0.9~ubuntu22.04.1) date 2024-01-09 22:45:08*
%MOMM*%
%LPD*%
G01*
G04 APERTURE LIST*
%ADD10C,0.150000*%
%ADD11C,0.459372*%
%ADD12C,0.120000*%
G04 APERTURE END LIST*
D10*
X140266922Y-88859961D02*
X140185969Y-89507580D01*
X140185969Y-89507580D02*
X140138350Y-89583771D01*
X140138350Y-89583771D02*
X140095493Y-89621866D01*
X140095493Y-89621866D02*
X140014541Y-89659961D01*
X140014541Y-89659961D02*
X139900255Y-89659961D01*
X139900255Y-89659961D02*
X139828826Y-89621866D01*
X140205017Y-89355200D02*
X140124064Y-89393295D01*
X140124064Y-89393295D02*
X139971684Y-89393295D01*
X139971684Y-89393295D02*
X139900255Y-89355200D01*
X139900255Y-89355200D02*
X139866922Y-89317104D01*
X139866922Y-89317104D02*
X139838350Y-89240914D01*
X139838350Y-89240914D02*
X139866922Y-89012342D01*
X139866922Y-89012342D02*
X139914541Y-88936152D01*
X139914541Y-88936152D02*
X139957398Y-88898057D01*
X139957398Y-88898057D02*
X140038350Y-88859961D01*
X140038350Y-88859961D02*
X140190731Y-88859961D01*
X140190731Y-88859961D02*
X140262160Y-88898057D01*
X140695494Y-89393295D02*
X140624065Y-89355200D01*
X140624065Y-89355200D02*
X140590732Y-89317104D01*
X140590732Y-89317104D02*
X140562160Y-89240914D01*
X140562160Y-89240914D02*
X140590732Y-89012342D01*
X140590732Y-89012342D02*
X140638351Y-88936152D01*
X140638351Y-88936152D02*
X140681208Y-88898057D01*
X140681208Y-88898057D02*
X140762160Y-88859961D01*
X140762160Y-88859961D02*
X140876446Y-88859961D01*
X140876446Y-88859961D02*
X140947874Y-88898057D01*
X140947874Y-88898057D02*
X140981208Y-88936152D01*
X140981208Y-88936152D02*
X141009779Y-89012342D01*
X141009779Y-89012342D02*
X140981208Y-89240914D01*
X140981208Y-89240914D02*
X140933589Y-89317104D01*
X140933589Y-89317104D02*
X140890732Y-89355200D01*
X140890732Y-89355200D02*
X140809779Y-89393295D01*
X140809779Y-89393295D02*
X140695494Y-89393295D01*
X141614542Y-89355200D02*
X141533589Y-89393295D01*
X141533589Y-89393295D02*
X141381208Y-89393295D01*
X141381208Y-89393295D02*
X141309780Y-89355200D01*
X141309780Y-89355200D02*
X141281208Y-89279009D01*
X141281208Y-89279009D02*
X141319304Y-88974247D01*
X141319304Y-88974247D02*
X141366923Y-88898057D01*
X141366923Y-88898057D02*
X141447875Y-88859961D01*
X141447875Y-88859961D02*
X141600256Y-88859961D01*
X141600256Y-88859961D02*
X141671684Y-88898057D01*
X141671684Y-88898057D02*
X141700256Y-88974247D01*
X141700256Y-88974247D02*
X141690732Y-89050438D01*
X141690732Y-89050438D02*
X141300256Y-89126628D01*
X141957398Y-89355200D02*
X142028827Y-89393295D01*
X142028827Y-89393295D02*
X142181208Y-89393295D01*
X142181208Y-89393295D02*
X142262160Y-89355200D01*
X142262160Y-89355200D02*
X142309779Y-89279009D01*
X142309779Y-89279009D02*
X142314541Y-89240914D01*
X142314541Y-89240914D02*
X142285970Y-89164723D01*
X142285970Y-89164723D02*
X142214541Y-89126628D01*
X142214541Y-89126628D02*
X142100256Y-89126628D01*
X142100256Y-89126628D02*
X142028827Y-89088533D01*
X142028827Y-89088533D02*
X142000256Y-89012342D01*
X142000256Y-89012342D02*
X142005018Y-88974247D01*
X142005018Y-88974247D02*
X142052637Y-88898057D01*
X142052637Y-88898057D02*
X142133589Y-88859961D01*
X142133589Y-88859961D02*
X142247875Y-88859961D01*
X142247875Y-88859961D02*
X142319303Y-88898057D01*
X143362161Y-89393295D02*
X143290732Y-89355200D01*
X143290732Y-89355200D02*
X143262161Y-89279009D01*
X143262161Y-89279009D02*
X143347875Y-88593295D01*
X143781209Y-89393295D02*
X143709780Y-89355200D01*
X143709780Y-89355200D02*
X143676447Y-89317104D01*
X143676447Y-89317104D02*
X143647875Y-89240914D01*
X143647875Y-89240914D02*
X143676447Y-89012342D01*
X143676447Y-89012342D02*
X143724066Y-88936152D01*
X143724066Y-88936152D02*
X143766923Y-88898057D01*
X143766923Y-88898057D02*
X143847875Y-88859961D01*
X143847875Y-88859961D02*
X143962161Y-88859961D01*
X143962161Y-88859961D02*
X144033589Y-88898057D01*
X144033589Y-88898057D02*
X144066923Y-88936152D01*
X144066923Y-88936152D02*
X144095494Y-89012342D01*
X144095494Y-89012342D02*
X144066923Y-89240914D01*
X144066923Y-89240914D02*
X144019304Y-89317104D01*
X144019304Y-89317104D02*
X143976447Y-89355200D01*
X143976447Y-89355200D02*
X143895494Y-89393295D01*
X143895494Y-89393295D02*
X143781209Y-89393295D01*
X144381209Y-88859961D02*
X144466923Y-89393295D01*
X144466923Y-89393295D02*
X144666923Y-89012342D01*
X144666923Y-89012342D02*
X144771685Y-89393295D01*
X144771685Y-89393295D02*
X144990733Y-88859961D01*
X145828828Y-88859961D02*
X145914542Y-89393295D01*
X145914542Y-89393295D02*
X146114542Y-89012342D01*
X146114542Y-89012342D02*
X146219304Y-89393295D01*
X146219304Y-89393295D02*
X146438352Y-88859961D01*
X146676447Y-89393295D02*
X146776447Y-88593295D01*
X147019304Y-89393295D02*
X147071685Y-88974247D01*
X147071685Y-88974247D02*
X147043113Y-88898057D01*
X147043113Y-88898057D02*
X146971685Y-88859961D01*
X146971685Y-88859961D02*
X146857399Y-88859961D01*
X146857399Y-88859961D02*
X146776447Y-88898057D01*
X146776447Y-88898057D02*
X146733590Y-88936152D01*
X147709781Y-89355200D02*
X147628828Y-89393295D01*
X147628828Y-89393295D02*
X147476447Y-89393295D01*
X147476447Y-89393295D02*
X147405019Y-89355200D01*
X147405019Y-89355200D02*
X147376447Y-89279009D01*
X147376447Y-89279009D02*
X147414543Y-88974247D01*
X147414543Y-88974247D02*
X147462162Y-88898057D01*
X147462162Y-88898057D02*
X147543114Y-88859961D01*
X147543114Y-88859961D02*
X147695495Y-88859961D01*
X147695495Y-88859961D02*
X147766923Y-88898057D01*
X147766923Y-88898057D02*
X147795495Y-88974247D01*
X147795495Y-88974247D02*
X147785971Y-89050438D01*
X147785971Y-89050438D02*
X147395495Y-89126628D01*
X148152637Y-88859961D02*
X148085971Y-89393295D01*
X148143114Y-88936152D02*
X148185971Y-88898057D01*
X148185971Y-88898057D02*
X148266923Y-88859961D01*
X148266923Y-88859961D02*
X148381209Y-88859961D01*
X148381209Y-88859961D02*
X148452637Y-88898057D01*
X148452637Y-88898057D02*
X148481209Y-88974247D01*
X148481209Y-88974247D02*
X148428828Y-89393295D01*
X141062160Y-89881295D02*
X141228827Y-90681295D01*
X141228827Y-90681295D02*
X141595493Y-89881295D01*
X141685969Y-90681295D02*
X142171684Y-90147961D01*
X141752636Y-90147961D02*
X142105017Y-90681295D01*
X143695493Y-90147961D02*
X143057398Y-90376533D01*
X143057398Y-90376533D02*
X143638350Y-90605104D01*
X144605017Y-89881295D02*
X144771684Y-90681295D01*
X144771684Y-90681295D02*
X145138350Y-89881295D01*
X145295493Y-90147961D02*
X145419303Y-90681295D01*
X145676445Y-90147961D02*
X145419303Y-90681295D01*
X145419303Y-90681295D02*
X145319303Y-90871771D01*
X145319303Y-90871771D02*
X145276445Y-90909866D01*
X145276445Y-90909866D02*
X145195493Y-90947961D01*
X140047874Y-92274057D02*
X140014541Y-92235961D01*
X140014541Y-92235961D02*
X139952636Y-92121676D01*
X139952636Y-92121676D02*
X139924064Y-92045485D01*
X139924064Y-92045485D02*
X139900255Y-91931200D01*
X139900255Y-91931200D02*
X139885969Y-91740723D01*
X139885969Y-91740723D02*
X139905017Y-91588342D01*
X139905017Y-91588342D02*
X139966922Y-91397866D01*
X139966922Y-91397866D02*
X140019303Y-91283580D01*
X140019303Y-91283580D02*
X140066922Y-91207390D01*
X140066922Y-91207390D02*
X140157398Y-91093104D01*
X140157398Y-91093104D02*
X140200255Y-91055009D01*
X140390731Y-91969295D02*
X140457397Y-91435961D01*
X140490731Y-91169295D02*
X140447874Y-91207390D01*
X140447874Y-91207390D02*
X140481207Y-91245485D01*
X140481207Y-91245485D02*
X140524064Y-91207390D01*
X140524064Y-91207390D02*
X140490731Y-91169295D01*
X140490731Y-91169295D02*
X140481207Y-91245485D01*
X140724064Y-91435961D02*
X141028826Y-91435961D01*
X140771683Y-91969295D02*
X140857397Y-91283580D01*
X140857397Y-91283580D02*
X140905016Y-91207390D01*
X140905016Y-91207390D02*
X140985969Y-91169295D01*
X140985969Y-91169295D02*
X141062159Y-91169295D01*
X141790731Y-91435961D02*
X142095493Y-91435961D01*
X141938350Y-91169295D02*
X141852636Y-91855009D01*
X141852636Y-91855009D02*
X141881207Y-91931200D01*
X141881207Y-91931200D02*
X141952636Y-91969295D01*
X141952636Y-91969295D02*
X142028826Y-91969295D01*
X142605017Y-91931200D02*
X142524064Y-91969295D01*
X142524064Y-91969295D02*
X142371683Y-91969295D01*
X142371683Y-91969295D02*
X142300255Y-91931200D01*
X142300255Y-91931200D02*
X142271683Y-91855009D01*
X142271683Y-91855009D02*
X142309779Y-91550247D01*
X142309779Y-91550247D02*
X142357398Y-91474057D01*
X142357398Y-91474057D02*
X142438350Y-91435961D01*
X142438350Y-91435961D02*
X142590731Y-91435961D01*
X142590731Y-91435961D02*
X142662159Y-91474057D01*
X142662159Y-91474057D02*
X142690731Y-91550247D01*
X142690731Y-91550247D02*
X142681207Y-91626438D01*
X142681207Y-91626438D02*
X142290731Y-91702628D01*
X142981207Y-91969295D02*
X143047873Y-91435961D01*
X143038350Y-91512152D02*
X143081207Y-91474057D01*
X143081207Y-91474057D02*
X143162159Y-91435961D01*
X143162159Y-91435961D02*
X143276445Y-91435961D01*
X143276445Y-91435961D02*
X143347873Y-91474057D01*
X143347873Y-91474057D02*
X143376445Y-91550247D01*
X143376445Y-91550247D02*
X143324064Y-91969295D01*
X143376445Y-91550247D02*
X143424064Y-91474057D01*
X143424064Y-91474057D02*
X143505016Y-91435961D01*
X143505016Y-91435961D02*
X143619302Y-91435961D01*
X143619302Y-91435961D02*
X143690731Y-91474057D01*
X143690731Y-91474057D02*
X143719302Y-91550247D01*
X143719302Y-91550247D02*
X143666921Y-91969295D01*
X144114540Y-91435961D02*
X144014540Y-92235961D01*
X144109779Y-91474057D02*
X144190731Y-91435961D01*
X144190731Y-91435961D02*
X144343112Y-91435961D01*
X144343112Y-91435961D02*
X144414540Y-91474057D01*
X144414540Y-91474057D02*
X144447874Y-91512152D01*
X144447874Y-91512152D02*
X144476445Y-91588342D01*
X144476445Y-91588342D02*
X144447874Y-91816914D01*
X144447874Y-91816914D02*
X144400255Y-91893104D01*
X144400255Y-91893104D02*
X144357398Y-91931200D01*
X144357398Y-91931200D02*
X144276445Y-91969295D01*
X144276445Y-91969295D02*
X144124064Y-91969295D01*
X144124064Y-91969295D02*
X144052636Y-91931200D01*
X145495494Y-91969295D02*
X145424065Y-91931200D01*
X145424065Y-91931200D02*
X145390732Y-91893104D01*
X145390732Y-91893104D02*
X145362160Y-91816914D01*
X145362160Y-91816914D02*
X145390732Y-91588342D01*
X145390732Y-91588342D02*
X145438351Y-91512152D01*
X145438351Y-91512152D02*
X145481208Y-91474057D01*
X145481208Y-91474057D02*
X145562160Y-91435961D01*
X145562160Y-91435961D02*
X145676446Y-91435961D01*
X145676446Y-91435961D02*
X145747874Y-91474057D01*
X145747874Y-91474057D02*
X145781208Y-91512152D01*
X145781208Y-91512152D02*
X145809779Y-91588342D01*
X145809779Y-91588342D02*
X145781208Y-91816914D01*
X145781208Y-91816914D02*
X145733589Y-91893104D01*
X145733589Y-91893104D02*
X145690732Y-91931200D01*
X145690732Y-91931200D02*
X145609779Y-91969295D01*
X145609779Y-91969295D02*
X145495494Y-91969295D01*
X146095494Y-91435961D02*
X146219304Y-91969295D01*
X146219304Y-91969295D02*
X146476446Y-91435961D01*
X147024066Y-91931200D02*
X146943113Y-91969295D01*
X146943113Y-91969295D02*
X146790732Y-91969295D01*
X146790732Y-91969295D02*
X146719304Y-91931200D01*
X146719304Y-91931200D02*
X146690732Y-91855009D01*
X146690732Y-91855009D02*
X146728828Y-91550247D01*
X146728828Y-91550247D02*
X146776447Y-91474057D01*
X146776447Y-91474057D02*
X146857399Y-91435961D01*
X146857399Y-91435961D02*
X147009780Y-91435961D01*
X147009780Y-91435961D02*
X147081208Y-91474057D01*
X147081208Y-91474057D02*
X147109780Y-91550247D01*
X147109780Y-91550247D02*
X147100256Y-91626438D01*
X147100256Y-91626438D02*
X146709780Y-91702628D01*
X147400256Y-91969295D02*
X147466922Y-91435961D01*
X147447875Y-91588342D02*
X147495494Y-91512152D01*
X147495494Y-91512152D02*
X147538351Y-91474057D01*
X147538351Y-91474057D02*
X147619303Y-91435961D01*
X147619303Y-91435961D02*
X147695494Y-91435961D01*
X148528827Y-91169295D02*
X149024065Y-91169295D01*
X149024065Y-91169295D02*
X148719304Y-91474057D01*
X148719304Y-91474057D02*
X148833589Y-91474057D01*
X148833589Y-91474057D02*
X148905018Y-91512152D01*
X148905018Y-91512152D02*
X148938351Y-91550247D01*
X148938351Y-91550247D02*
X148966923Y-91626438D01*
X148966923Y-91626438D02*
X148943113Y-91816914D01*
X148943113Y-91816914D02*
X148895494Y-91893104D01*
X148895494Y-91893104D02*
X148852637Y-91931200D01*
X148852637Y-91931200D02*
X148771684Y-91969295D01*
X148771684Y-91969295D02*
X148543113Y-91969295D01*
X148543113Y-91969295D02*
X148471684Y-91931200D01*
X148471684Y-91931200D02*
X148438351Y-91893104D01*
X149519304Y-91169295D02*
X149595494Y-91169295D01*
X149595494Y-91169295D02*
X149666923Y-91207390D01*
X149666923Y-91207390D02*
X149700256Y-91245485D01*
X149700256Y-91245485D02*
X149728828Y-91321676D01*
X149728828Y-91321676D02*
X149747875Y-91474057D01*
X149747875Y-91474057D02*
X149724066Y-91664533D01*
X149724066Y-91664533D02*
X149666923Y-91816914D01*
X149666923Y-91816914D02*
X149619304Y-91893104D01*
X149619304Y-91893104D02*
X149576447Y-91931200D01*
X149576447Y-91931200D02*
X149495494Y-91969295D01*
X149495494Y-91969295D02*
X149419304Y-91969295D01*
X149419304Y-91969295D02*
X149347875Y-91931200D01*
X149347875Y-91931200D02*
X149314542Y-91893104D01*
X149314542Y-91893104D02*
X149285970Y-91816914D01*
X149285970Y-91816914D02*
X149266923Y-91664533D01*
X149266923Y-91664533D02*
X149290732Y-91474057D01*
X149290732Y-91474057D02*
X149347875Y-91321676D01*
X149347875Y-91321676D02*
X149395494Y-91245485D01*
X149395494Y-91245485D02*
X149438351Y-91207390D01*
X149438351Y-91207390D02*
X149519304Y-91169295D01*
X150243114Y-91169295D02*
X150162161Y-91207390D01*
X150162161Y-91207390D02*
X150114542Y-91283580D01*
X150114542Y-91283580D02*
X150143114Y-91359771D01*
X150143114Y-91359771D02*
X150214542Y-91397866D01*
X150214542Y-91397866D02*
X150295494Y-91359771D01*
X150295494Y-91359771D02*
X150343114Y-91283580D01*
X150343114Y-91283580D02*
X150314542Y-91207390D01*
X150314542Y-91207390D02*
X150243114Y-91169295D01*
X151105018Y-91893104D02*
X151062161Y-91931200D01*
X151062161Y-91931200D02*
X150943114Y-91969295D01*
X150943114Y-91969295D02*
X150866923Y-91969295D01*
X150866923Y-91969295D02*
X150757399Y-91931200D01*
X150757399Y-91931200D02*
X150690733Y-91855009D01*
X150690733Y-91855009D02*
X150662161Y-91778819D01*
X150662161Y-91778819D02*
X150643114Y-91626438D01*
X150643114Y-91626438D02*
X150657399Y-91512152D01*
X150657399Y-91512152D02*
X150714542Y-91359771D01*
X150714542Y-91359771D02*
X150762161Y-91283580D01*
X150762161Y-91283580D02*
X150847876Y-91207390D01*
X150847876Y-91207390D02*
X150966923Y-91169295D01*
X150966923Y-91169295D02*
X151043114Y-91169295D01*
X151043114Y-91169295D02*
X151152638Y-91207390D01*
X151152638Y-91207390D02*
X151185971Y-91245485D01*
X151324066Y-92274057D02*
X151366923Y-92235961D01*
X151366923Y-92235961D02*
X151457399Y-92121676D01*
X151457399Y-92121676D02*
X151505018Y-92045485D01*
X151505018Y-92045485D02*
X151557399Y-91931200D01*
X151557399Y-91931200D02*
X151619304Y-91740723D01*
X151619304Y-91740723D02*
X151638352Y-91588342D01*
X151638352Y-91588342D02*
X151624066Y-91397866D01*
X151624066Y-91397866D02*
X151600257Y-91283580D01*
X151600257Y-91283580D02*
X151571685Y-91207390D01*
X151571685Y-91207390D02*
X151509780Y-91093104D01*
X151509780Y-91093104D02*
X151476447Y-91055009D01*
X148602719Y-81425839D02*
X147907279Y-81092560D01*
X147574000Y-81788000D02*
X147907279Y-81092560D01*
X147907279Y-81092560D02*
X147574000Y-81788000D01*
X147554613Y-88163540D02*
G75*
G03*
X147907278Y-81092560I-7873998J3937000D01*
G01*
X121351922Y-80657819D02*
X121685255Y-81657819D01*
X121685255Y-81657819D02*
X122018588Y-80657819D01*
X122256684Y-81657819D02*
X122780493Y-80991152D01*
X122256684Y-80991152D02*
X122780493Y-81657819D01*
X112207922Y-77863819D02*
X112541255Y-78863819D01*
X112541255Y-78863819D02*
X112874588Y-77863819D01*
X113112684Y-78197152D02*
X113350779Y-78863819D01*
X113588874Y-78197152D02*
X113350779Y-78863819D01*
X113350779Y-78863819D02*
X113255541Y-79101914D01*
X113255541Y-79101914D02*
X113207922Y-79149533D01*
X113207922Y-79149533D02*
X113112684Y-79197152D01*
D11*
X123673686Y-81280000D02*
G75*
G03*
X123673686Y-81280000I-229686J0D01*
G01*
X114529686Y-78613000D02*
G75*
G03*
X114529686Y-78613000I-229686J0D01*
G01*
X114529686Y-60960000D02*
G75*
G03*
X114529686Y-60960000I-229686J0D01*
G01*
X123673686Y-60960000D02*
G75*
G03*
X123673686Y-60960000I-229686J0D01*
G01*
X136881686Y-61010800D02*
G75*
G03*
X136881686Y-61010800I-229686J0D01*
G01*
D10*
X117938779Y-59686866D02*
X118700684Y-59686866D01*
X118319731Y-60067819D02*
X118319731Y-59305914D01*
X119081636Y-59067819D02*
X119700683Y-59067819D01*
X119700683Y-59067819D02*
X119367350Y-59448771D01*
X119367350Y-59448771D02*
X119510207Y-59448771D01*
X119510207Y-59448771D02*
X119605445Y-59496390D01*
X119605445Y-59496390D02*
X119653064Y-59544009D01*
X119653064Y-59544009D02*
X119700683Y-59639247D01*
X119700683Y-59639247D02*
X119700683Y-59877342D01*
X119700683Y-59877342D02*
X119653064Y-59972580D01*
X119653064Y-59972580D02*
X119605445Y-60020200D01*
X119605445Y-60020200D02*
X119510207Y-60067819D01*
X119510207Y-60067819D02*
X119224493Y-60067819D01*
X119224493Y-60067819D02*
X119129255Y-60020200D01*
X119129255Y-60020200D02*
X119081636Y-59972580D01*
X119986398Y-59067819D02*
X120319731Y-60067819D01*
X120319731Y-60067819D02*
X120653064Y-59067819D01*
X127381000Y-82931000D02*
X127381000Y-81915000D01*
X126873000Y-82423000D02*
X127889000Y-82423000D01*
X126873000Y-77470000D02*
X127889000Y-77470000D01*
X128905000Y-81280000D02*
X123444000Y-81280000D01*
X114300000Y-78613000D02*
X128905000Y-78613000D01*
X136652000Y-87249000D02*
X136652000Y-91694000D01*
X136144000Y-93472000D02*
X137160000Y-93472000D01*
X136652000Y-91694000D02*
X136652000Y-92456000D01*
X134874000Y-92456000D02*
X138430000Y-92456000D01*
X135636000Y-92964000D02*
X137668000Y-92964000D01*
X122936000Y-98044000D02*
X123952000Y-98044000D01*
X123444000Y-96266000D02*
X123444000Y-97028000D01*
X121666000Y-97028000D02*
X125222000Y-97028000D01*
X122428000Y-97536000D02*
X124460000Y-97536000D01*
X114300000Y-96266000D02*
X114300000Y-97028000D01*
X93472000Y-96012000D02*
X94488000Y-96012000D01*
X92202000Y-94996000D02*
X95758000Y-94996000D01*
X92964000Y-95504000D02*
X94996000Y-95504000D01*
X113284000Y-97536000D02*
X115316000Y-97536000D01*
X113792000Y-98044000D02*
X114808000Y-98044000D01*
X112522000Y-97028000D02*
X116078000Y-97028000D01*
X93980000Y-89370000D02*
X93980000Y-94996000D01*
X147828000Y-80772000D02*
X146939000Y-80772000D01*
X147828000Y-79756000D02*
X147828000Y-80772000D01*
X93980000Y-60960000D02*
X93980000Y-72136000D01*
X123444000Y-74676000D02*
X123444000Y-84328000D01*
X114300000Y-74676000D02*
X114300000Y-84328000D01*
X146939000Y-80772000D02*
X128905000Y-67945000D01*
X128905000Y-92075000D02*
X146939000Y-80772000D01*
X128905000Y-67945000D02*
X128905000Y-92075000D01*
X147828000Y-65430000D02*
X147828000Y-67970000D01*
X147828000Y-60960000D02*
X147828000Y-62484000D01*
X130810000Y-60960000D02*
X147828000Y-60960000D01*
X123444000Y-60960000D02*
X123444000Y-62484000D01*
X114300000Y-60960000D02*
X114300000Y-62484000D01*
X136652000Y-61010800D02*
X136652000Y-73406000D01*
X93980000Y-60960000D02*
X130810000Y-60960000D01*
X91221160Y-100676104D02*
X91697350Y-100676104D01*
X91125922Y-100961819D02*
X91459255Y-99961819D01*
X91459255Y-99961819D02*
X91792588Y-100961819D01*
X92125922Y-100961819D02*
X92125922Y-100295152D01*
X92125922Y-100485628D02*
X92173541Y-100390390D01*
X92173541Y-100390390D02*
X92221160Y-100342771D01*
X92221160Y-100342771D02*
X92316398Y-100295152D01*
X92316398Y-100295152D02*
X92411636Y-100295152D01*
X92602113Y-100295152D02*
X92983065Y-100295152D01*
X92744970Y-99961819D02*
X92744970Y-100818961D01*
X92744970Y-100818961D02*
X92792589Y-100914200D01*
X92792589Y-100914200D02*
X92887827Y-100961819D01*
X92887827Y-100961819D02*
X92983065Y-100961819D01*
X94221161Y-100961819D02*
X94125923Y-100914200D01*
X94125923Y-100914200D02*
X94078304Y-100866580D01*
X94078304Y-100866580D02*
X94030685Y-100771342D01*
X94030685Y-100771342D02*
X94030685Y-100485628D01*
X94030685Y-100485628D02*
X94078304Y-100390390D01*
X94078304Y-100390390D02*
X94125923Y-100342771D01*
X94125923Y-100342771D02*
X94221161Y-100295152D01*
X94221161Y-100295152D02*
X94364018Y-100295152D01*
X94364018Y-100295152D02*
X94459256Y-100342771D01*
X94459256Y-100342771D02*
X94506875Y-100390390D01*
X94506875Y-100390390D02*
X94554494Y-100485628D01*
X94554494Y-100485628D02*
X94554494Y-100771342D01*
X94554494Y-100771342D02*
X94506875Y-100866580D01*
X94506875Y-100866580D02*
X94459256Y-100914200D01*
X94459256Y-100914200D02*
X94364018Y-100961819D01*
X94364018Y-100961819D02*
X94221161Y-100961819D01*
X94840209Y-100295152D02*
X95221161Y-100295152D01*
X94983066Y-100961819D02*
X94983066Y-100104676D01*
X94983066Y-100104676D02*
X95030685Y-100009438D01*
X95030685Y-100009438D02*
X95125923Y-99961819D01*
X95125923Y-99961819D02*
X95221161Y-99961819D01*
X96316400Y-100438009D02*
X96649733Y-100438009D01*
X96792590Y-100961819D02*
X96316400Y-100961819D01*
X96316400Y-100961819D02*
X96316400Y-99961819D01*
X96316400Y-99961819D02*
X96792590Y-99961819D01*
X97364019Y-100961819D02*
X97268781Y-100914200D01*
X97268781Y-100914200D02*
X97221162Y-100818961D01*
X97221162Y-100818961D02*
X97221162Y-99961819D01*
X98125924Y-100914200D02*
X98030686Y-100961819D01*
X98030686Y-100961819D02*
X97840210Y-100961819D01*
X97840210Y-100961819D02*
X97744972Y-100914200D01*
X97744972Y-100914200D02*
X97697353Y-100818961D01*
X97697353Y-100818961D02*
X97697353Y-100438009D01*
X97697353Y-100438009D02*
X97744972Y-100342771D01*
X97744972Y-100342771D02*
X97840210Y-100295152D01*
X97840210Y-100295152D02*
X98030686Y-100295152D01*
X98030686Y-100295152D02*
X98125924Y-100342771D01*
X98125924Y-100342771D02*
X98173543Y-100438009D01*
X98173543Y-100438009D02*
X98173543Y-100533247D01*
X98173543Y-100533247D02*
X97697353Y-100628485D01*
X99030686Y-100914200D02*
X98935448Y-100961819D01*
X98935448Y-100961819D02*
X98744972Y-100961819D01*
X98744972Y-100961819D02*
X98649734Y-100914200D01*
X98649734Y-100914200D02*
X98602115Y-100866580D01*
X98602115Y-100866580D02*
X98554496Y-100771342D01*
X98554496Y-100771342D02*
X98554496Y-100485628D01*
X98554496Y-100485628D02*
X98602115Y-100390390D01*
X98602115Y-100390390D02*
X98649734Y-100342771D01*
X98649734Y-100342771D02*
X98744972Y-100295152D01*
X98744972Y-100295152D02*
X98935448Y-100295152D01*
X98935448Y-100295152D02*
X99030686Y-100342771D01*
X99316401Y-100295152D02*
X99697353Y-100295152D01*
X99459258Y-99961819D02*
X99459258Y-100818961D01*
X99459258Y-100818961D02*
X99506877Y-100914200D01*
X99506877Y-100914200D02*
X99602115Y-100961819D01*
X99602115Y-100961819D02*
X99697353Y-100961819D01*
X100030687Y-100961819D02*
X100030687Y-100295152D01*
X100030687Y-100485628D02*
X100078306Y-100390390D01*
X100078306Y-100390390D02*
X100125925Y-100342771D01*
X100125925Y-100342771D02*
X100221163Y-100295152D01*
X100221163Y-100295152D02*
X100316401Y-100295152D01*
X100792592Y-100961819D02*
X100697354Y-100914200D01*
X100697354Y-100914200D02*
X100649735Y-100866580D01*
X100649735Y-100866580D02*
X100602116Y-100771342D01*
X100602116Y-100771342D02*
X100602116Y-100485628D01*
X100602116Y-100485628D02*
X100649735Y-100390390D01*
X100649735Y-100390390D02*
X100697354Y-100342771D01*
X100697354Y-100342771D02*
X100792592Y-100295152D01*
X100792592Y-100295152D02*
X100935449Y-100295152D01*
X100935449Y-100295152D02*
X101030687Y-100342771D01*
X101030687Y-100342771D02*
X101078306Y-100390390D01*
X101078306Y-100390390D02*
X101125925Y-100485628D01*
X101125925Y-100485628D02*
X101125925Y-100771342D01*
X101125925Y-100771342D02*
X101078306Y-100866580D01*
X101078306Y-100866580D02*
X101030687Y-100914200D01*
X101030687Y-100914200D02*
X100935449Y-100961819D01*
X100935449Y-100961819D02*
X100792592Y-100961819D01*
X101554497Y-100295152D02*
X101554497Y-100961819D01*
X101554497Y-100390390D02*
X101602116Y-100342771D01*
X101602116Y-100342771D02*
X101697354Y-100295152D01*
X101697354Y-100295152D02*
X101840211Y-100295152D01*
X101840211Y-100295152D02*
X101935449Y-100342771D01*
X101935449Y-100342771D02*
X101983068Y-100438009D01*
X101983068Y-100438009D02*
X101983068Y-100961819D01*
X102459259Y-100961819D02*
X102459259Y-100295152D01*
X102459259Y-99961819D02*
X102411640Y-100009438D01*
X102411640Y-100009438D02*
X102459259Y-100057057D01*
X102459259Y-100057057D02*
X102506878Y-100009438D01*
X102506878Y-100009438D02*
X102459259Y-99961819D01*
X102459259Y-99961819D02*
X102459259Y-100057057D01*
X103364020Y-100914200D02*
X103268782Y-100961819D01*
X103268782Y-100961819D02*
X103078306Y-100961819D01*
X103078306Y-100961819D02*
X102983068Y-100914200D01*
X102983068Y-100914200D02*
X102935449Y-100866580D01*
X102935449Y-100866580D02*
X102887830Y-100771342D01*
X102887830Y-100771342D02*
X102887830Y-100485628D01*
X102887830Y-100485628D02*
X102935449Y-100390390D01*
X102935449Y-100390390D02*
X102983068Y-100342771D01*
X102983068Y-100342771D02*
X103078306Y-100295152D01*
X103078306Y-100295152D02*
X103268782Y-100295152D01*
X103268782Y-100295152D02*
X103364020Y-100342771D01*
X103744973Y-100914200D02*
X103840211Y-100961819D01*
X103840211Y-100961819D02*
X104030687Y-100961819D01*
X104030687Y-100961819D02*
X104125925Y-100914200D01*
X104125925Y-100914200D02*
X104173544Y-100818961D01*
X104173544Y-100818961D02*
X104173544Y-100771342D01*
X104173544Y-100771342D02*
X104125925Y-100676104D01*
X104125925Y-100676104D02*
X104030687Y-100628485D01*
X104030687Y-100628485D02*
X103887830Y-100628485D01*
X103887830Y-100628485D02*
X103792592Y-100580866D01*
X103792592Y-100580866D02*
X103744973Y-100485628D01*
X103744973Y-100485628D02*
X103744973Y-100438009D01*
X103744973Y-100438009D02*
X103792592Y-100342771D01*
X103792592Y-100342771D02*
X103887830Y-100295152D01*
X103887830Y-100295152D02*
X104030687Y-100295152D01*
X104030687Y-100295152D02*
X104125925Y-100342771D01*
X105268783Y-99961819D02*
X105887830Y-99961819D01*
X105887830Y-99961819D02*
X105554497Y-100342771D01*
X105554497Y-100342771D02*
X105697354Y-100342771D01*
X105697354Y-100342771D02*
X105792592Y-100390390D01*
X105792592Y-100390390D02*
X105840211Y-100438009D01*
X105840211Y-100438009D02*
X105887830Y-100533247D01*
X105887830Y-100533247D02*
X105887830Y-100771342D01*
X105887830Y-100771342D02*
X105840211Y-100866580D01*
X105840211Y-100866580D02*
X105792592Y-100914200D01*
X105792592Y-100914200D02*
X105697354Y-100961819D01*
X105697354Y-100961819D02*
X105411640Y-100961819D01*
X105411640Y-100961819D02*
X105316402Y-100914200D01*
X105316402Y-100914200D02*
X105268783Y-100866580D01*
X106316402Y-100961819D02*
X106316402Y-100295152D01*
X106316402Y-100485628D02*
X106364021Y-100390390D01*
X106364021Y-100390390D02*
X106411640Y-100342771D01*
X106411640Y-100342771D02*
X106506878Y-100295152D01*
X106506878Y-100295152D02*
X106602116Y-100295152D01*
X107364021Y-100961819D02*
X107364021Y-99961819D01*
X107364021Y-100914200D02*
X107268783Y-100961819D01*
X107268783Y-100961819D02*
X107078307Y-100961819D01*
X107078307Y-100961819D02*
X106983069Y-100914200D01*
X106983069Y-100914200D02*
X106935450Y-100866580D01*
X106935450Y-100866580D02*
X106887831Y-100771342D01*
X106887831Y-100771342D02*
X106887831Y-100485628D01*
X106887831Y-100485628D02*
X106935450Y-100390390D01*
X106935450Y-100390390D02*
X106983069Y-100342771D01*
X106983069Y-100342771D02*
X107078307Y-100295152D01*
X107078307Y-100295152D02*
X107268783Y-100295152D01*
X107268783Y-100295152D02*
X107364021Y-100342771D01*
X108602117Y-100438009D02*
X108935450Y-100438009D01*
X109078307Y-100961819D02*
X108602117Y-100961819D01*
X108602117Y-100961819D02*
X108602117Y-99961819D01*
X108602117Y-99961819D02*
X109078307Y-99961819D01*
X109935450Y-100961819D02*
X109935450Y-99961819D01*
X109935450Y-100914200D02*
X109840212Y-100961819D01*
X109840212Y-100961819D02*
X109649736Y-100961819D01*
X109649736Y-100961819D02*
X109554498Y-100914200D01*
X109554498Y-100914200D02*
X109506879Y-100866580D01*
X109506879Y-100866580D02*
X109459260Y-100771342D01*
X109459260Y-100771342D02*
X109459260Y-100485628D01*
X109459260Y-100485628D02*
X109506879Y-100390390D01*
X109506879Y-100390390D02*
X109554498Y-100342771D01*
X109554498Y-100342771D02*
X109649736Y-100295152D01*
X109649736Y-100295152D02*
X109840212Y-100295152D01*
X109840212Y-100295152D02*
X109935450Y-100342771D01*
X110411641Y-100866580D02*
X110459260Y-100914200D01*
X110459260Y-100914200D02*
X110411641Y-100961819D01*
X110411641Y-100961819D02*
X110364022Y-100914200D01*
X110364022Y-100914200D02*
X110411641Y-100866580D01*
X110411641Y-100866580D02*
X110411641Y-100961819D01*
X111649736Y-100580866D02*
X112411641Y-100580866D01*
X113649736Y-101057057D02*
X113744974Y-101104676D01*
X113744974Y-101104676D02*
X113887831Y-101104676D01*
X113887831Y-101104676D02*
X113983069Y-101057057D01*
X113983069Y-101057057D02*
X114030688Y-100961819D01*
X114030688Y-100961819D02*
X113983069Y-100866580D01*
X113983069Y-100866580D02*
X113697355Y-100580866D01*
X113697355Y-100580866D02*
X113649736Y-100485628D01*
X113649736Y-100485628D02*
X113649736Y-100438009D01*
X113649736Y-100438009D02*
X113697355Y-100342771D01*
X113697355Y-100342771D02*
X113792593Y-100295152D01*
X114030688Y-100009438D02*
X113935450Y-99961819D01*
X113935450Y-99961819D02*
X113792593Y-99961819D01*
X113792593Y-99961819D02*
X113697355Y-100009438D01*
X113697355Y-100009438D02*
X113649736Y-100104676D01*
X113649736Y-100104676D02*
X113697355Y-100199914D01*
X113697355Y-100199914D02*
X113983069Y-100485628D01*
X113983069Y-100485628D02*
X114030688Y-100580866D01*
X114030688Y-100580866D02*
X114030688Y-100628485D01*
X114030688Y-100628485D02*
X113983069Y-100723723D01*
X113983069Y-100723723D02*
X113887831Y-100771342D01*
X115030688Y-100961819D02*
X114459260Y-100961819D01*
X114744974Y-100961819D02*
X114744974Y-99961819D01*
X114744974Y-99961819D02*
X114649736Y-100104676D01*
X114649736Y-100104676D02*
X114554498Y-100199914D01*
X114554498Y-100199914D02*
X114459260Y-100247533D01*
X115459260Y-100866580D02*
X115506879Y-100914200D01*
X115506879Y-100914200D02*
X115459260Y-100961819D01*
X115459260Y-100961819D02*
X115411641Y-100914200D01*
X115411641Y-100914200D02*
X115459260Y-100866580D01*
X115459260Y-100866580D02*
X115459260Y-100961819D01*
X115887831Y-100057057D02*
X115935450Y-100009438D01*
X115935450Y-100009438D02*
X116030688Y-99961819D01*
X116030688Y-99961819D02*
X116268783Y-99961819D01*
X116268783Y-99961819D02*
X116364021Y-100009438D01*
X116364021Y-100009438D02*
X116411640Y-100057057D01*
X116411640Y-100057057D02*
X116459259Y-100152295D01*
X116459259Y-100152295D02*
X116459259Y-100247533D01*
X116459259Y-100247533D02*
X116411640Y-100390390D01*
X116411640Y-100390390D02*
X115840212Y-100961819D01*
X115840212Y-100961819D02*
X116459259Y-100961819D01*
X116887831Y-100866580D02*
X116935450Y-100914200D01*
X116935450Y-100914200D02*
X116887831Y-100961819D01*
X116887831Y-100961819D02*
X116840212Y-100914200D01*
X116840212Y-100914200D02*
X116887831Y-100866580D01*
X116887831Y-100866580D02*
X116887831Y-100961819D01*
X117268783Y-99961819D02*
X117935449Y-99961819D01*
X117935449Y-99961819D02*
X117506878Y-100961819D01*
X118316402Y-100866580D02*
X118364021Y-100914200D01*
X118364021Y-100914200D02*
X118316402Y-100961819D01*
X118316402Y-100961819D02*
X118268783Y-100914200D01*
X118268783Y-100914200D02*
X118316402Y-100866580D01*
X118316402Y-100866580D02*
X118316402Y-100961819D01*
X118316402Y-100342771D02*
X118364021Y-100390390D01*
X118364021Y-100390390D02*
X118316402Y-100438009D01*
X118316402Y-100438009D02*
X118268783Y-100390390D01*
X118268783Y-100390390D02*
X118316402Y-100342771D01*
X118316402Y-100342771D02*
X118316402Y-100438009D01*
X119506878Y-100676104D02*
X119983068Y-100676104D01*
X119411640Y-100961819D02*
X119744973Y-99961819D01*
X119744973Y-99961819D02*
X120078306Y-100961819D01*
X120411640Y-100295152D02*
X120411640Y-100961819D01*
X120411640Y-100390390D02*
X120459259Y-100342771D01*
X120459259Y-100342771D02*
X120554497Y-100295152D01*
X120554497Y-100295152D02*
X120697354Y-100295152D01*
X120697354Y-100295152D02*
X120792592Y-100342771D01*
X120792592Y-100342771D02*
X120840211Y-100438009D01*
X120840211Y-100438009D02*
X120840211Y-100961819D01*
X122459259Y-100914200D02*
X122364021Y-100961819D01*
X122364021Y-100961819D02*
X122173545Y-100961819D01*
X122173545Y-100961819D02*
X122078307Y-100914200D01*
X122078307Y-100914200D02*
X122030688Y-100818961D01*
X122030688Y-100818961D02*
X122030688Y-100438009D01*
X122030688Y-100438009D02*
X122078307Y-100342771D01*
X122078307Y-100342771D02*
X122173545Y-100295152D01*
X122173545Y-100295152D02*
X122364021Y-100295152D01*
X122364021Y-100295152D02*
X122459259Y-100342771D01*
X122459259Y-100342771D02*
X122506878Y-100438009D01*
X122506878Y-100438009D02*
X122506878Y-100533247D01*
X122506878Y-100533247D02*
X122030688Y-100628485D01*
X122840212Y-100961819D02*
X123364021Y-100295152D01*
X122840212Y-100295152D02*
X123364021Y-100961819D01*
X124173545Y-100961819D02*
X124173545Y-100438009D01*
X124173545Y-100438009D02*
X124125926Y-100342771D01*
X124125926Y-100342771D02*
X124030688Y-100295152D01*
X124030688Y-100295152D02*
X123840212Y-100295152D01*
X123840212Y-100295152D02*
X123744974Y-100342771D01*
X124173545Y-100914200D02*
X124078307Y-100961819D01*
X124078307Y-100961819D02*
X123840212Y-100961819D01*
X123840212Y-100961819D02*
X123744974Y-100914200D01*
X123744974Y-100914200D02*
X123697355Y-100818961D01*
X123697355Y-100818961D02*
X123697355Y-100723723D01*
X123697355Y-100723723D02*
X123744974Y-100628485D01*
X123744974Y-100628485D02*
X123840212Y-100580866D01*
X123840212Y-100580866D02*
X124078307Y-100580866D01*
X124078307Y-100580866D02*
X124173545Y-100533247D01*
X124649736Y-100961819D02*
X124649736Y-100295152D01*
X124649736Y-100390390D02*
X124697355Y-100342771D01*
X124697355Y-100342771D02*
X124792593Y-100295152D01*
X124792593Y-100295152D02*
X124935450Y-100295152D01*
X124935450Y-100295152D02*
X125030688Y-100342771D01*
X125030688Y-100342771D02*
X125078307Y-100438009D01*
X125078307Y-100438009D02*
X125078307Y-100961819D01*
X125078307Y-100438009D02*
X125125926Y-100342771D01*
X125125926Y-100342771D02*
X125221164Y-100295152D01*
X125221164Y-100295152D02*
X125364021Y-100295152D01*
X125364021Y-100295152D02*
X125459260Y-100342771D01*
X125459260Y-100342771D02*
X125506879Y-100438009D01*
X125506879Y-100438009D02*
X125506879Y-100961819D01*
X125983069Y-100295152D02*
X125983069Y-101295152D01*
X125983069Y-100342771D02*
X126078307Y-100295152D01*
X126078307Y-100295152D02*
X126268783Y-100295152D01*
X126268783Y-100295152D02*
X126364021Y-100342771D01*
X126364021Y-100342771D02*
X126411640Y-100390390D01*
X126411640Y-100390390D02*
X126459259Y-100485628D01*
X126459259Y-100485628D02*
X126459259Y-100771342D01*
X126459259Y-100771342D02*
X126411640Y-100866580D01*
X126411640Y-100866580D02*
X126364021Y-100914200D01*
X126364021Y-100914200D02*
X126268783Y-100961819D01*
X126268783Y-100961819D02*
X126078307Y-100961819D01*
X126078307Y-100961819D02*
X125983069Y-100914200D01*
X127030688Y-100961819D02*
X126935450Y-100914200D01*
X126935450Y-100914200D02*
X126887831Y-100818961D01*
X126887831Y-100818961D02*
X126887831Y-99961819D01*
X127792593Y-100914200D02*
X127697355Y-100961819D01*
X127697355Y-100961819D02*
X127506879Y-100961819D01*
X127506879Y-100961819D02*
X127411641Y-100914200D01*
X127411641Y-100914200D02*
X127364022Y-100818961D01*
X127364022Y-100818961D02*
X127364022Y-100438009D01*
X127364022Y-100438009D02*
X127411641Y-100342771D01*
X127411641Y-100342771D02*
X127506879Y-100295152D01*
X127506879Y-100295152D02*
X127697355Y-100295152D01*
X127697355Y-100295152D02*
X127792593Y-100342771D01*
X127792593Y-100342771D02*
X127840212Y-100438009D01*
X127840212Y-100438009D02*
X127840212Y-100533247D01*
X127840212Y-100533247D02*
X127364022Y-100628485D01*
X128268784Y-100866580D02*
X128316403Y-100914200D01*
X128316403Y-100914200D02*
X128268784Y-100961819D01*
X128268784Y-100961819D02*
X128221165Y-100914200D01*
X128221165Y-100914200D02*
X128268784Y-100866580D01*
X128268784Y-100866580D02*
X128268784Y-100961819D01*
X128268784Y-100342771D02*
X128316403Y-100390390D01*
X128316403Y-100390390D02*
X128268784Y-100438009D01*
X128268784Y-100438009D02*
X128221165Y-100390390D01*
X128221165Y-100390390D02*
X128268784Y-100342771D01*
X128268784Y-100342771D02*
X128268784Y-100438009D01*
X129459260Y-99961819D02*
X129459260Y-100152295D01*
X129840212Y-99961819D02*
X129840212Y-100152295D01*
X130268784Y-100961819D02*
X130268784Y-99961819D01*
X130602117Y-100295152D02*
X130983069Y-100295152D01*
X130744974Y-99961819D02*
X130744974Y-100818961D01*
X130744974Y-100818961D02*
X130792593Y-100914200D01*
X130792593Y-100914200D02*
X130887831Y-100961819D01*
X130887831Y-100961819D02*
X130983069Y-100961819D01*
X131364022Y-99961819D02*
X131268784Y-100152295D01*
X131744974Y-100914200D02*
X131840212Y-100961819D01*
X131840212Y-100961819D02*
X132030688Y-100961819D01*
X132030688Y-100961819D02*
X132125926Y-100914200D01*
X132125926Y-100914200D02*
X132173545Y-100818961D01*
X132173545Y-100818961D02*
X132173545Y-100771342D01*
X132173545Y-100771342D02*
X132125926Y-100676104D01*
X132125926Y-100676104D02*
X132030688Y-100628485D01*
X132030688Y-100628485D02*
X131887831Y-100628485D01*
X131887831Y-100628485D02*
X131792593Y-100580866D01*
X131792593Y-100580866D02*
X131744974Y-100485628D01*
X131744974Y-100485628D02*
X131744974Y-100438009D01*
X131744974Y-100438009D02*
X131792593Y-100342771D01*
X131792593Y-100342771D02*
X131887831Y-100295152D01*
X131887831Y-100295152D02*
X132030688Y-100295152D01*
X132030688Y-100295152D02*
X132125926Y-100342771D01*
X133221165Y-100295152D02*
X133602117Y-100295152D01*
X133364022Y-99961819D02*
X133364022Y-100818961D01*
X133364022Y-100818961D02*
X133411641Y-100914200D01*
X133411641Y-100914200D02*
X133506879Y-100961819D01*
X133506879Y-100961819D02*
X133602117Y-100961819D01*
X134078308Y-100961819D02*
X133983070Y-100914200D01*
X133983070Y-100914200D02*
X133935451Y-100866580D01*
X133935451Y-100866580D02*
X133887832Y-100771342D01*
X133887832Y-100771342D02*
X133887832Y-100485628D01*
X133887832Y-100485628D02*
X133935451Y-100390390D01*
X133935451Y-100390390D02*
X133983070Y-100342771D01*
X133983070Y-100342771D02*
X134078308Y-100295152D01*
X134078308Y-100295152D02*
X134221165Y-100295152D01*
X134221165Y-100295152D02*
X134316403Y-100342771D01*
X134316403Y-100342771D02*
X134364022Y-100390390D01*
X134364022Y-100390390D02*
X134411641Y-100485628D01*
X134411641Y-100485628D02*
X134411641Y-100771342D01*
X134411641Y-100771342D02*
X134364022Y-100866580D01*
X134364022Y-100866580D02*
X134316403Y-100914200D01*
X134316403Y-100914200D02*
X134221165Y-100961819D01*
X134221165Y-100961819D02*
X134078308Y-100961819D01*
X134983070Y-100961819D02*
X134887832Y-100914200D01*
X134887832Y-100914200D02*
X134840213Y-100866580D01*
X134840213Y-100866580D02*
X134792594Y-100771342D01*
X134792594Y-100771342D02*
X134792594Y-100485628D01*
X134792594Y-100485628D02*
X134840213Y-100390390D01*
X134840213Y-100390390D02*
X134887832Y-100342771D01*
X134887832Y-100342771D02*
X134983070Y-100295152D01*
X134983070Y-100295152D02*
X135125927Y-100295152D01*
X135125927Y-100295152D02*
X135221165Y-100342771D01*
X135221165Y-100342771D02*
X135268784Y-100390390D01*
X135268784Y-100390390D02*
X135316403Y-100485628D01*
X135316403Y-100485628D02*
X135316403Y-100771342D01*
X135316403Y-100771342D02*
X135268784Y-100866580D01*
X135268784Y-100866580D02*
X135221165Y-100914200D01*
X135221165Y-100914200D02*
X135125927Y-100961819D01*
X135125927Y-100961819D02*
X134983070Y-100961819D01*
X136506880Y-100961819D02*
X136506880Y-99961819D01*
X136935451Y-100961819D02*
X136935451Y-100438009D01*
X136935451Y-100438009D02*
X136887832Y-100342771D01*
X136887832Y-100342771D02*
X136792594Y-100295152D01*
X136792594Y-100295152D02*
X136649737Y-100295152D01*
X136649737Y-100295152D02*
X136554499Y-100342771D01*
X136554499Y-100342771D02*
X136506880Y-100390390D01*
X137554499Y-100961819D02*
X137459261Y-100914200D01*
X137459261Y-100914200D02*
X137411642Y-100866580D01*
X137411642Y-100866580D02*
X137364023Y-100771342D01*
X137364023Y-100771342D02*
X137364023Y-100485628D01*
X137364023Y-100485628D02*
X137411642Y-100390390D01*
X137411642Y-100390390D02*
X137459261Y-100342771D01*
X137459261Y-100342771D02*
X137554499Y-100295152D01*
X137554499Y-100295152D02*
X137697356Y-100295152D01*
X137697356Y-100295152D02*
X137792594Y-100342771D01*
X137792594Y-100342771D02*
X137840213Y-100390390D01*
X137840213Y-100390390D02*
X137887832Y-100485628D01*
X137887832Y-100485628D02*
X137887832Y-100771342D01*
X137887832Y-100771342D02*
X137840213Y-100866580D01*
X137840213Y-100866580D02*
X137792594Y-100914200D01*
X137792594Y-100914200D02*
X137697356Y-100961819D01*
X137697356Y-100961819D02*
X137554499Y-100961819D01*
X138173547Y-100295152D02*
X138554499Y-100295152D01*
X138316404Y-99961819D02*
X138316404Y-100818961D01*
X138316404Y-100818961D02*
X138364023Y-100914200D01*
X138364023Y-100914200D02*
X138459261Y-100961819D01*
X138459261Y-100961819D02*
X138554499Y-100961819D01*
X138887833Y-100866580D02*
X138935452Y-100914200D01*
X138935452Y-100914200D02*
X138887833Y-100961819D01*
X138887833Y-100961819D02*
X138840214Y-100914200D01*
X138840214Y-100914200D02*
X138887833Y-100866580D01*
X138887833Y-100866580D02*
X138887833Y-100961819D01*
X138887833Y-100580866D02*
X138840214Y-100009438D01*
X138840214Y-100009438D02*
X138887833Y-99961819D01*
X138887833Y-99961819D02*
X138935452Y-100009438D01*
X138935452Y-100009438D02*
X138887833Y-100580866D01*
X138887833Y-100580866D02*
X138887833Y-99961819D01*
X139316404Y-99961819D02*
X139316404Y-100152295D01*
X139697356Y-99961819D02*
X139697356Y-100152295D01*
X79986285Y-74099009D02*
X80129142Y-74146628D01*
X80129142Y-74146628D02*
X80176761Y-74194247D01*
X80176761Y-74194247D02*
X80224380Y-74289485D01*
X80224380Y-74289485D02*
X80224380Y-74432342D01*
X80224380Y-74432342D02*
X80176761Y-74527580D01*
X80176761Y-74527580D02*
X80129142Y-74575200D01*
X80129142Y-74575200D02*
X80033904Y-74622819D01*
X80033904Y-74622819D02*
X79652952Y-74622819D01*
X79652952Y-74622819D02*
X79652952Y-73622819D01*
X79652952Y-73622819D02*
X79986285Y-73622819D01*
X79986285Y-73622819D02*
X80081523Y-73670438D01*
X80081523Y-73670438D02*
X80129142Y-73718057D01*
X80129142Y-73718057D02*
X80176761Y-73813295D01*
X80176761Y-73813295D02*
X80176761Y-73908533D01*
X80176761Y-73908533D02*
X80129142Y-74003771D01*
X80129142Y-74003771D02*
X80081523Y-74051390D01*
X80081523Y-74051390D02*
X79986285Y-74099009D01*
X79986285Y-74099009D02*
X79652952Y-74099009D01*
X80510095Y-73622819D02*
X81081523Y-73622819D01*
X80795809Y-74622819D02*
X80795809Y-73622819D01*
X81938666Y-74622819D02*
X81367238Y-74622819D01*
X81652952Y-74622819D02*
X81652952Y-73622819D01*
X81652952Y-73622819D02*
X81557714Y-73765676D01*
X81557714Y-73765676D02*
X81462476Y-73860914D01*
X81462476Y-73860914D02*
X81367238Y-73908533D01*
X77914761Y-83290580D02*
X77867142Y-83338200D01*
X77867142Y-83338200D02*
X77724285Y-83385819D01*
X77724285Y-83385819D02*
X77629047Y-83385819D01*
X77629047Y-83385819D02*
X77486190Y-83338200D01*
X77486190Y-83338200D02*
X77390952Y-83242961D01*
X77390952Y-83242961D02*
X77343333Y-83147723D01*
X77343333Y-83147723D02*
X77295714Y-82957247D01*
X77295714Y-82957247D02*
X77295714Y-82814390D01*
X77295714Y-82814390D02*
X77343333Y-82623914D01*
X77343333Y-82623914D02*
X77390952Y-82528676D01*
X77390952Y-82528676D02*
X77486190Y-82433438D01*
X77486190Y-82433438D02*
X77629047Y-82385819D01*
X77629047Y-82385819D02*
X77724285Y-82385819D01*
X77724285Y-82385819D02*
X77867142Y-82433438D01*
X77867142Y-82433438D02*
X77914761Y-82481057D01*
X78914761Y-83385819D02*
X78581428Y-82909628D01*
X78343333Y-83385819D02*
X78343333Y-82385819D01*
X78343333Y-82385819D02*
X78724285Y-82385819D01*
X78724285Y-82385819D02*
X78819523Y-82433438D01*
X78819523Y-82433438D02*
X78867142Y-82481057D01*
X78867142Y-82481057D02*
X78914761Y-82576295D01*
X78914761Y-82576295D02*
X78914761Y-82719152D01*
X78914761Y-82719152D02*
X78867142Y-82814390D01*
X78867142Y-82814390D02*
X78819523Y-82862009D01*
X78819523Y-82862009D02*
X78724285Y-82909628D01*
X78724285Y-82909628D02*
X78343333Y-82909628D01*
X79295714Y-82481057D02*
X79343333Y-82433438D01*
X79343333Y-82433438D02*
X79438571Y-82385819D01*
X79438571Y-82385819D02*
X79676666Y-82385819D01*
X79676666Y-82385819D02*
X79771904Y-82433438D01*
X79771904Y-82433438D02*
X79819523Y-82481057D01*
X79819523Y-82481057D02*
X79867142Y-82576295D01*
X79867142Y-82576295D02*
X79867142Y-82671533D01*
X79867142Y-82671533D02*
X79819523Y-82814390D01*
X79819523Y-82814390D02*
X79248095Y-83385819D01*
X79248095Y-83385819D02*
X79867142Y-83385819D01*
X80486190Y-82385819D02*
X80581428Y-82385819D01*
X80581428Y-82385819D02*
X80676666Y-82433438D01*
X80676666Y-82433438D02*
X80724285Y-82481057D01*
X80724285Y-82481057D02*
X80771904Y-82576295D01*
X80771904Y-82576295D02*
X80819523Y-82766771D01*
X80819523Y-82766771D02*
X80819523Y-83004866D01*
X80819523Y-83004866D02*
X80771904Y-83195342D01*
X80771904Y-83195342D02*
X80724285Y-83290580D01*
X80724285Y-83290580D02*
X80676666Y-83338200D01*
X80676666Y-83338200D02*
X80581428Y-83385819D01*
X80581428Y-83385819D02*
X80486190Y-83385819D01*
X80486190Y-83385819D02*
X80390952Y-83338200D01*
X80390952Y-83338200D02*
X80343333Y-83290580D01*
X80343333Y-83290580D02*
X80295714Y-83195342D01*
X80295714Y-83195342D02*
X80248095Y-83004866D01*
X80248095Y-83004866D02*
X80248095Y-82766771D01*
X80248095Y-82766771D02*
X80295714Y-82576295D01*
X80295714Y-82576295D02*
X80343333Y-82481057D01*
X80343333Y-82481057D02*
X80390952Y-82433438D01*
X80390952Y-82433438D02*
X80486190Y-82385819D01*
X81152857Y-82385819D02*
X81771904Y-82385819D01*
X81771904Y-82385819D02*
X81438571Y-82766771D01*
X81438571Y-82766771D02*
X81581428Y-82766771D01*
X81581428Y-82766771D02*
X81676666Y-82814390D01*
X81676666Y-82814390D02*
X81724285Y-82862009D01*
X81724285Y-82862009D02*
X81771904Y-82957247D01*
X81771904Y-82957247D02*
X81771904Y-83195342D01*
X81771904Y-83195342D02*
X81724285Y-83290580D01*
X81724285Y-83290580D02*
X81676666Y-83338200D01*
X81676666Y-83338200D02*
X81581428Y-83385819D01*
X81581428Y-83385819D02*
X81295714Y-83385819D01*
X81295714Y-83385819D02*
X81200476Y-83338200D01*
X81200476Y-83338200D02*
X81152857Y-83290580D01*
X82152857Y-82481057D02*
X82200476Y-82433438D01*
X82200476Y-82433438D02*
X82295714Y-82385819D01*
X82295714Y-82385819D02*
X82533809Y-82385819D01*
X82533809Y-82385819D02*
X82629047Y-82433438D01*
X82629047Y-82433438D02*
X82676666Y-82481057D01*
X82676666Y-82481057D02*
X82724285Y-82576295D01*
X82724285Y-82576295D02*
X82724285Y-82671533D01*
X82724285Y-82671533D02*
X82676666Y-82814390D01*
X82676666Y-82814390D02*
X82105238Y-83385819D01*
X82105238Y-83385819D02*
X82724285Y-83385819D01*
X143589905Y-64843819D02*
X143589905Y-63843819D01*
X143589905Y-63843819D02*
X143828000Y-63843819D01*
X143828000Y-63843819D02*
X143970857Y-63891438D01*
X143970857Y-63891438D02*
X144066095Y-63986676D01*
X144066095Y-63986676D02*
X144113714Y-64081914D01*
X144113714Y-64081914D02*
X144161333Y-64272390D01*
X144161333Y-64272390D02*
X144161333Y-64415247D01*
X144161333Y-64415247D02*
X144113714Y-64605723D01*
X144113714Y-64605723D02*
X144066095Y-64700961D01*
X144066095Y-64700961D02*
X143970857Y-64796200D01*
X143970857Y-64796200D02*
X143828000Y-64843819D01*
X143828000Y-64843819D02*
X143589905Y-64843819D01*
X145113714Y-64843819D02*
X144542286Y-64843819D01*
X144828000Y-64843819D02*
X144828000Y-63843819D01*
X144828000Y-63843819D02*
X144732762Y-63986676D01*
X144732762Y-63986676D02*
X144637524Y-64081914D01*
X144637524Y-64081914D02*
X144542286Y-64129533D01*
X151242819Y-65031857D02*
X151242819Y-65508047D01*
X151242819Y-65508047D02*
X150242819Y-65508047D01*
X150719009Y-64698523D02*
X150719009Y-64365190D01*
X151242819Y-64222333D02*
X151242819Y-64698523D01*
X151242819Y-64698523D02*
X150242819Y-64698523D01*
X150242819Y-64698523D02*
X150242819Y-64222333D01*
X151242819Y-63793761D02*
X150242819Y-63793761D01*
X150242819Y-63793761D02*
X150242819Y-63555666D01*
X150242819Y-63555666D02*
X150290438Y-63412809D01*
X150290438Y-63412809D02*
X150385676Y-63317571D01*
X150385676Y-63317571D02*
X150480914Y-63269952D01*
X150480914Y-63269952D02*
X150671390Y-63222333D01*
X150671390Y-63222333D02*
X150814247Y-63222333D01*
X150814247Y-63222333D02*
X151004723Y-63269952D01*
X151004723Y-63269952D02*
X151099961Y-63317571D01*
X151099961Y-63317571D02*
X151195200Y-63412809D01*
X151195200Y-63412809D02*
X151242819Y-63555666D01*
X151242819Y-63555666D02*
X151242819Y-63793761D01*
X130302095Y-72860819D02*
X130302095Y-73670342D01*
X130302095Y-73670342D02*
X130349714Y-73765580D01*
X130349714Y-73765580D02*
X130397333Y-73813200D01*
X130397333Y-73813200D02*
X130492571Y-73860819D01*
X130492571Y-73860819D02*
X130683047Y-73860819D01*
X130683047Y-73860819D02*
X130778285Y-73813200D01*
X130778285Y-73813200D02*
X130825904Y-73765580D01*
X130825904Y-73765580D02*
X130873523Y-73670342D01*
X130873523Y-73670342D02*
X130873523Y-72860819D01*
X131873523Y-73860819D02*
X131302095Y-73860819D01*
X131587809Y-73860819D02*
X131587809Y-72860819D01*
X131587809Y-72860819D02*
X131492571Y-73003676D01*
X131492571Y-73003676D02*
X131397333Y-73098914D01*
X131397333Y-73098914D02*
X131302095Y-73146533D01*
X129476905Y-86687819D02*
X129476905Y-85687819D01*
X129476905Y-85687819D02*
X129810238Y-86402104D01*
X129810238Y-86402104D02*
X130143571Y-85687819D01*
X130143571Y-85687819D02*
X130143571Y-86687819D01*
X131191190Y-86592580D02*
X131143571Y-86640200D01*
X131143571Y-86640200D02*
X131000714Y-86687819D01*
X131000714Y-86687819D02*
X130905476Y-86687819D01*
X130905476Y-86687819D02*
X130762619Y-86640200D01*
X130762619Y-86640200D02*
X130667381Y-86544961D01*
X130667381Y-86544961D02*
X130619762Y-86449723D01*
X130619762Y-86449723D02*
X130572143Y-86259247D01*
X130572143Y-86259247D02*
X130572143Y-86116390D01*
X130572143Y-86116390D02*
X130619762Y-85925914D01*
X130619762Y-85925914D02*
X130667381Y-85830676D01*
X130667381Y-85830676D02*
X130762619Y-85735438D01*
X130762619Y-85735438D02*
X130905476Y-85687819D01*
X130905476Y-85687819D02*
X131000714Y-85687819D01*
X131000714Y-85687819D02*
X131143571Y-85735438D01*
X131143571Y-85735438D02*
X131191190Y-85783057D01*
X131619762Y-86687819D02*
X131619762Y-85687819D01*
X131619762Y-85687819D02*
X132000714Y-85687819D01*
X132000714Y-85687819D02*
X132095952Y-85735438D01*
X132095952Y-85735438D02*
X132143571Y-85783057D01*
X132143571Y-85783057D02*
X132191190Y-85878295D01*
X132191190Y-85878295D02*
X132191190Y-86021152D01*
X132191190Y-86021152D02*
X132143571Y-86116390D01*
X132143571Y-86116390D02*
X132095952Y-86164009D01*
X132095952Y-86164009D02*
X132000714Y-86211628D01*
X132000714Y-86211628D02*
X131619762Y-86211628D01*
X133048333Y-85687819D02*
X132857857Y-85687819D01*
X132857857Y-85687819D02*
X132762619Y-85735438D01*
X132762619Y-85735438D02*
X132715000Y-85783057D01*
X132715000Y-85783057D02*
X132619762Y-85925914D01*
X132619762Y-85925914D02*
X132572143Y-86116390D01*
X132572143Y-86116390D02*
X132572143Y-86497342D01*
X132572143Y-86497342D02*
X132619762Y-86592580D01*
X132619762Y-86592580D02*
X132667381Y-86640200D01*
X132667381Y-86640200D02*
X132762619Y-86687819D01*
X132762619Y-86687819D02*
X132953095Y-86687819D01*
X132953095Y-86687819D02*
X133048333Y-86640200D01*
X133048333Y-86640200D02*
X133095952Y-86592580D01*
X133095952Y-86592580D02*
X133143571Y-86497342D01*
X133143571Y-86497342D02*
X133143571Y-86259247D01*
X133143571Y-86259247D02*
X133095952Y-86164009D01*
X133095952Y-86164009D02*
X133048333Y-86116390D01*
X133048333Y-86116390D02*
X132953095Y-86068771D01*
X132953095Y-86068771D02*
X132762619Y-86068771D01*
X132762619Y-86068771D02*
X132667381Y-86116390D01*
X132667381Y-86116390D02*
X132619762Y-86164009D01*
X132619762Y-86164009D02*
X132572143Y-86259247D01*
X134048333Y-85687819D02*
X133572143Y-85687819D01*
X133572143Y-85687819D02*
X133524524Y-86164009D01*
X133524524Y-86164009D02*
X133572143Y-86116390D01*
X133572143Y-86116390D02*
X133667381Y-86068771D01*
X133667381Y-86068771D02*
X133905476Y-86068771D01*
X133905476Y-86068771D02*
X134000714Y-86116390D01*
X134000714Y-86116390D02*
X134048333Y-86164009D01*
X134048333Y-86164009D02*
X134095952Y-86259247D01*
X134095952Y-86259247D02*
X134095952Y-86497342D01*
X134095952Y-86497342D02*
X134048333Y-86592580D01*
X134048333Y-86592580D02*
X134000714Y-86640200D01*
X134000714Y-86640200D02*
X133905476Y-86687819D01*
X133905476Y-86687819D02*
X133667381Y-86687819D01*
X133667381Y-86687819D02*
X133572143Y-86640200D01*
X133572143Y-86640200D02*
X133524524Y-86592580D01*
X134953095Y-85687819D02*
X134762619Y-85687819D01*
X134762619Y-85687819D02*
X134667381Y-85735438D01*
X134667381Y-85735438D02*
X134619762Y-85783057D01*
X134619762Y-85783057D02*
X134524524Y-85925914D01*
X134524524Y-85925914D02*
X134476905Y-86116390D01*
X134476905Y-86116390D02*
X134476905Y-86497342D01*
X134476905Y-86497342D02*
X134524524Y-86592580D01*
X134524524Y-86592580D02*
X134572143Y-86640200D01*
X134572143Y-86640200D02*
X134667381Y-86687819D01*
X134667381Y-86687819D02*
X134857857Y-86687819D01*
X134857857Y-86687819D02*
X134953095Y-86640200D01*
X134953095Y-86640200D02*
X135000714Y-86592580D01*
X135000714Y-86592580D02*
X135048333Y-86497342D01*
X135048333Y-86497342D02*
X135048333Y-86259247D01*
X135048333Y-86259247D02*
X135000714Y-86164009D01*
X135000714Y-86164009D02*
X134953095Y-86116390D01*
X134953095Y-86116390D02*
X134857857Y-86068771D01*
X134857857Y-86068771D02*
X134667381Y-86068771D01*
X134667381Y-86068771D02*
X134572143Y-86116390D01*
X134572143Y-86116390D02*
X134524524Y-86164009D01*
X134524524Y-86164009D02*
X134476905Y-86259247D01*
X135429286Y-85783057D02*
X135476905Y-85735438D01*
X135476905Y-85735438D02*
X135572143Y-85687819D01*
X135572143Y-85687819D02*
X135810238Y-85687819D01*
X135810238Y-85687819D02*
X135905476Y-85735438D01*
X135905476Y-85735438D02*
X135953095Y-85783057D01*
X135953095Y-85783057D02*
X136000714Y-85878295D01*
X136000714Y-85878295D02*
X136000714Y-85973533D01*
X136000714Y-85973533D02*
X135953095Y-86116390D01*
X135953095Y-86116390D02*
X135381667Y-86687819D01*
X135381667Y-86687819D02*
X136000714Y-86687819D01*
X125079286Y-89624819D02*
X125650714Y-89624819D01*
X125365000Y-90624819D02*
X125365000Y-89624819D01*
X125984048Y-90624819D02*
X125984048Y-89624819D01*
X125984048Y-90101009D02*
X126555476Y-90101009D01*
X126555476Y-90624819D02*
X126555476Y-89624819D01*
X127555476Y-90624819D02*
X126984048Y-90624819D01*
X127269762Y-90624819D02*
X127269762Y-89624819D01*
X127269762Y-89624819D02*
X127174524Y-89767676D01*
X127174524Y-89767676D02*
X127079286Y-89862914D01*
X127079286Y-89862914D02*
X126984048Y-89910533D01*
X120528819Y-94003333D02*
X120528819Y-93431905D01*
X121528819Y-93717619D02*
X120528819Y-93717619D01*
X121528819Y-93098571D02*
X120528819Y-93098571D01*
X121528819Y-92670000D02*
X121005009Y-92670000D01*
X121005009Y-92670000D02*
X120909771Y-92717619D01*
X120909771Y-92717619D02*
X120862152Y-92812857D01*
X120862152Y-92812857D02*
X120862152Y-92955714D01*
X120862152Y-92955714D02*
X120909771Y-93050952D01*
X120909771Y-93050952D02*
X120957390Y-93098571D01*
X121481200Y-91812857D02*
X121528819Y-91908095D01*
X121528819Y-91908095D02*
X121528819Y-92098571D01*
X121528819Y-92098571D02*
X121481200Y-92193809D01*
X121481200Y-92193809D02*
X121385961Y-92241428D01*
X121385961Y-92241428D02*
X121005009Y-92241428D01*
X121005009Y-92241428D02*
X120909771Y-92193809D01*
X120909771Y-92193809D02*
X120862152Y-92098571D01*
X120862152Y-92098571D02*
X120862152Y-91908095D01*
X120862152Y-91908095D02*
X120909771Y-91812857D01*
X120909771Y-91812857D02*
X121005009Y-91765238D01*
X121005009Y-91765238D02*
X121100247Y-91765238D01*
X121100247Y-91765238D02*
X121195485Y-92241428D01*
X121528819Y-91336666D02*
X120862152Y-91336666D01*
X121052628Y-91336666D02*
X120957390Y-91289047D01*
X120957390Y-91289047D02*
X120909771Y-91241428D01*
X120909771Y-91241428D02*
X120862152Y-91146190D01*
X120862152Y-91146190D02*
X120862152Y-91050952D01*
X121528819Y-90717618D02*
X120862152Y-90717618D01*
X120957390Y-90717618D02*
X120909771Y-90669999D01*
X120909771Y-90669999D02*
X120862152Y-90574761D01*
X120862152Y-90574761D02*
X120862152Y-90431904D01*
X120862152Y-90431904D02*
X120909771Y-90336666D01*
X120909771Y-90336666D02*
X121005009Y-90289047D01*
X121005009Y-90289047D02*
X121528819Y-90289047D01*
X121005009Y-90289047D02*
X120909771Y-90241428D01*
X120909771Y-90241428D02*
X120862152Y-90146190D01*
X120862152Y-90146190D02*
X120862152Y-90003333D01*
X120862152Y-90003333D02*
X120909771Y-89908094D01*
X120909771Y-89908094D02*
X121005009Y-89860475D01*
X121005009Y-89860475D02*
X121528819Y-89860475D01*
X121528819Y-89384285D02*
X120862152Y-89384285D01*
X120528819Y-89384285D02*
X120576438Y-89431904D01*
X120576438Y-89431904D02*
X120624057Y-89384285D01*
X120624057Y-89384285D02*
X120576438Y-89336666D01*
X120576438Y-89336666D02*
X120528819Y-89384285D01*
X120528819Y-89384285D02*
X120624057Y-89384285D01*
X121481200Y-88955714D02*
X121528819Y-88860476D01*
X121528819Y-88860476D02*
X121528819Y-88670000D01*
X121528819Y-88670000D02*
X121481200Y-88574762D01*
X121481200Y-88574762D02*
X121385961Y-88527143D01*
X121385961Y-88527143D02*
X121338342Y-88527143D01*
X121338342Y-88527143D02*
X121243104Y-88574762D01*
X121243104Y-88574762D02*
X121195485Y-88670000D01*
X121195485Y-88670000D02*
X121195485Y-88812857D01*
X121195485Y-88812857D02*
X121147866Y-88908095D01*
X121147866Y-88908095D02*
X121052628Y-88955714D01*
X121052628Y-88955714D02*
X121005009Y-88955714D01*
X121005009Y-88955714D02*
X120909771Y-88908095D01*
X120909771Y-88908095D02*
X120862152Y-88812857D01*
X120862152Y-88812857D02*
X120862152Y-88670000D01*
X120862152Y-88670000D02*
X120909771Y-88574762D01*
X120862152Y-88241428D02*
X120862152Y-87860476D01*
X120528819Y-88098571D02*
X121385961Y-88098571D01*
X121385961Y-88098571D02*
X121481200Y-88050952D01*
X121481200Y-88050952D02*
X121528819Y-87955714D01*
X121528819Y-87955714D02*
X121528819Y-87860476D01*
X121528819Y-87384285D02*
X121481200Y-87479523D01*
X121481200Y-87479523D02*
X121433580Y-87527142D01*
X121433580Y-87527142D02*
X121338342Y-87574761D01*
X121338342Y-87574761D02*
X121052628Y-87574761D01*
X121052628Y-87574761D02*
X120957390Y-87527142D01*
X120957390Y-87527142D02*
X120909771Y-87479523D01*
X120909771Y-87479523D02*
X120862152Y-87384285D01*
X120862152Y-87384285D02*
X120862152Y-87241428D01*
X120862152Y-87241428D02*
X120909771Y-87146190D01*
X120909771Y-87146190D02*
X120957390Y-87098571D01*
X120957390Y-87098571D02*
X121052628Y-87050952D01*
X121052628Y-87050952D02*
X121338342Y-87050952D01*
X121338342Y-87050952D02*
X121433580Y-87098571D01*
X121433580Y-87098571D02*
X121481200Y-87146190D01*
X121481200Y-87146190D02*
X121528819Y-87241428D01*
X121528819Y-87241428D02*
X121528819Y-87384285D01*
X121528819Y-86622380D02*
X120862152Y-86622380D01*
X121052628Y-86622380D02*
X120957390Y-86574761D01*
X120957390Y-86574761D02*
X120909771Y-86527142D01*
X120909771Y-86527142D02*
X120862152Y-86431904D01*
X120862152Y-86431904D02*
X120862152Y-86336666D01*
X116703333Y-69114819D02*
X116370000Y-68638628D01*
X116131905Y-69114819D02*
X116131905Y-68114819D01*
X116131905Y-68114819D02*
X116512857Y-68114819D01*
X116512857Y-68114819D02*
X116608095Y-68162438D01*
X116608095Y-68162438D02*
X116655714Y-68210057D01*
X116655714Y-68210057D02*
X116703333Y-68305295D01*
X116703333Y-68305295D02*
X116703333Y-68448152D01*
X116703333Y-68448152D02*
X116655714Y-68543390D01*
X116655714Y-68543390D02*
X116608095Y-68591009D01*
X116608095Y-68591009D02*
X116512857Y-68638628D01*
X116512857Y-68638628D02*
X116131905Y-68638628D01*
X117655714Y-69114819D02*
X117084286Y-69114819D01*
X117370000Y-69114819D02*
X117370000Y-68114819D01*
X117370000Y-68114819D02*
X117274762Y-68257676D01*
X117274762Y-68257676D02*
X117179524Y-68352914D01*
X117179524Y-68352914D02*
X117084286Y-68400533D01*
X112334819Y-69350476D02*
X112334819Y-69921904D01*
X112334819Y-69636190D02*
X111334819Y-69636190D01*
X111334819Y-69636190D02*
X111477676Y-69731428D01*
X111477676Y-69731428D02*
X111572914Y-69826666D01*
X111572914Y-69826666D02*
X111620533Y-69921904D01*
X111334819Y-68731428D02*
X111334819Y-68636190D01*
X111334819Y-68636190D02*
X111382438Y-68540952D01*
X111382438Y-68540952D02*
X111430057Y-68493333D01*
X111430057Y-68493333D02*
X111525295Y-68445714D01*
X111525295Y-68445714D02*
X111715771Y-68398095D01*
X111715771Y-68398095D02*
X111953866Y-68398095D01*
X111953866Y-68398095D02*
X112144342Y-68445714D01*
X112144342Y-68445714D02*
X112239580Y-68493333D01*
X112239580Y-68493333D02*
X112287200Y-68540952D01*
X112287200Y-68540952D02*
X112334819Y-68636190D01*
X112334819Y-68636190D02*
X112334819Y-68731428D01*
X112334819Y-68731428D02*
X112287200Y-68826666D01*
X112287200Y-68826666D02*
X112239580Y-68874285D01*
X112239580Y-68874285D02*
X112144342Y-68921904D01*
X112144342Y-68921904D02*
X111953866Y-68969523D01*
X111953866Y-68969523D02*
X111715771Y-68969523D01*
X111715771Y-68969523D02*
X111525295Y-68921904D01*
X111525295Y-68921904D02*
X111430057Y-68874285D01*
X111430057Y-68874285D02*
X111382438Y-68826666D01*
X111382438Y-68826666D02*
X111334819Y-68731428D01*
X112334819Y-67969523D02*
X111334819Y-67969523D01*
X112334819Y-67398095D02*
X111763390Y-67826666D01*
X111334819Y-67398095D02*
X111906247Y-67969523D01*
X150411333Y-74364819D02*
X150078000Y-73888628D01*
X149839905Y-74364819D02*
X149839905Y-73364819D01*
X149839905Y-73364819D02*
X150220857Y-73364819D01*
X150220857Y-73364819D02*
X150316095Y-73412438D01*
X150316095Y-73412438D02*
X150363714Y-73460057D01*
X150363714Y-73460057D02*
X150411333Y-73555295D01*
X150411333Y-73555295D02*
X150411333Y-73698152D01*
X150411333Y-73698152D02*
X150363714Y-73793390D01*
X150363714Y-73793390D02*
X150316095Y-73841009D01*
X150316095Y-73841009D02*
X150220857Y-73888628D01*
X150220857Y-73888628D02*
X149839905Y-73888628D01*
X151268476Y-73698152D02*
X151268476Y-74364819D01*
X151030381Y-73317200D02*
X150792286Y-74031485D01*
X150792286Y-74031485D02*
X151411333Y-74031485D01*
X144912819Y-74421904D02*
X144912819Y-74612380D01*
X144912819Y-74612380D02*
X144960438Y-74707618D01*
X144960438Y-74707618D02*
X145008057Y-74755237D01*
X145008057Y-74755237D02*
X145150914Y-74850475D01*
X145150914Y-74850475D02*
X145341390Y-74898094D01*
X145341390Y-74898094D02*
X145722342Y-74898094D01*
X145722342Y-74898094D02*
X145817580Y-74850475D01*
X145817580Y-74850475D02*
X145865200Y-74802856D01*
X145865200Y-74802856D02*
X145912819Y-74707618D01*
X145912819Y-74707618D02*
X145912819Y-74517142D01*
X145912819Y-74517142D02*
X145865200Y-74421904D01*
X145865200Y-74421904D02*
X145817580Y-74374285D01*
X145817580Y-74374285D02*
X145722342Y-74326666D01*
X145722342Y-74326666D02*
X145484247Y-74326666D01*
X145484247Y-74326666D02*
X145389009Y-74374285D01*
X145389009Y-74374285D02*
X145341390Y-74421904D01*
X145341390Y-74421904D02*
X145293771Y-74517142D01*
X145293771Y-74517142D02*
X145293771Y-74707618D01*
X145293771Y-74707618D02*
X145341390Y-74802856D01*
X145341390Y-74802856D02*
X145389009Y-74850475D01*
X145389009Y-74850475D02*
X145484247Y-74898094D01*
X145341390Y-73755237D02*
X145293771Y-73850475D01*
X145293771Y-73850475D02*
X145246152Y-73898094D01*
X145246152Y-73898094D02*
X145150914Y-73945713D01*
X145150914Y-73945713D02*
X145103295Y-73945713D01*
X145103295Y-73945713D02*
X145008057Y-73898094D01*
X145008057Y-73898094D02*
X144960438Y-73850475D01*
X144960438Y-73850475D02*
X144912819Y-73755237D01*
X144912819Y-73755237D02*
X144912819Y-73564761D01*
X144912819Y-73564761D02*
X144960438Y-73469523D01*
X144960438Y-73469523D02*
X145008057Y-73421904D01*
X145008057Y-73421904D02*
X145103295Y-73374285D01*
X145103295Y-73374285D02*
X145150914Y-73374285D01*
X145150914Y-73374285D02*
X145246152Y-73421904D01*
X145246152Y-73421904D02*
X145293771Y-73469523D01*
X145293771Y-73469523D02*
X145341390Y-73564761D01*
X145341390Y-73564761D02*
X145341390Y-73755237D01*
X145341390Y-73755237D02*
X145389009Y-73850475D01*
X145389009Y-73850475D02*
X145436628Y-73898094D01*
X145436628Y-73898094D02*
X145531866Y-73945713D01*
X145531866Y-73945713D02*
X145722342Y-73945713D01*
X145722342Y-73945713D02*
X145817580Y-73898094D01*
X145817580Y-73898094D02*
X145865200Y-73850475D01*
X145865200Y-73850475D02*
X145912819Y-73755237D01*
X145912819Y-73755237D02*
X145912819Y-73564761D01*
X145912819Y-73564761D02*
X145865200Y-73469523D01*
X145865200Y-73469523D02*
X145817580Y-73421904D01*
X145817580Y-73421904D02*
X145722342Y-73374285D01*
X145722342Y-73374285D02*
X145531866Y-73374285D01*
X145531866Y-73374285D02*
X145436628Y-73421904D01*
X145436628Y-73421904D02*
X145389009Y-73469523D01*
X145389009Y-73469523D02*
X145341390Y-73564761D01*
X144912819Y-72755237D02*
X144912819Y-72659999D01*
X144912819Y-72659999D02*
X144960438Y-72564761D01*
X144960438Y-72564761D02*
X145008057Y-72517142D01*
X145008057Y-72517142D02*
X145103295Y-72469523D01*
X145103295Y-72469523D02*
X145293771Y-72421904D01*
X145293771Y-72421904D02*
X145531866Y-72421904D01*
X145531866Y-72421904D02*
X145722342Y-72469523D01*
X145722342Y-72469523D02*
X145817580Y-72517142D01*
X145817580Y-72517142D02*
X145865200Y-72564761D01*
X145865200Y-72564761D02*
X145912819Y-72659999D01*
X145912819Y-72659999D02*
X145912819Y-72755237D01*
X145912819Y-72755237D02*
X145865200Y-72850475D01*
X145865200Y-72850475D02*
X145817580Y-72898094D01*
X145817580Y-72898094D02*
X145722342Y-72945713D01*
X145722342Y-72945713D02*
X145531866Y-72993332D01*
X145531866Y-72993332D02*
X145293771Y-72993332D01*
X145293771Y-72993332D02*
X145103295Y-72945713D01*
X145103295Y-72945713D02*
X145008057Y-72898094D01*
X145008057Y-72898094D02*
X144960438Y-72850475D01*
X144960438Y-72850475D02*
X144912819Y-72755237D01*
X116703333Y-90624819D02*
X116370000Y-90148628D01*
X116131905Y-90624819D02*
X116131905Y-89624819D01*
X116131905Y-89624819D02*
X116512857Y-89624819D01*
X116512857Y-89624819D02*
X116608095Y-89672438D01*
X116608095Y-89672438D02*
X116655714Y-89720057D01*
X116655714Y-89720057D02*
X116703333Y-89815295D01*
X116703333Y-89815295D02*
X116703333Y-89958152D01*
X116703333Y-89958152D02*
X116655714Y-90053390D01*
X116655714Y-90053390D02*
X116608095Y-90101009D01*
X116608095Y-90101009D02*
X116512857Y-90148628D01*
X116512857Y-90148628D02*
X116131905Y-90148628D01*
X117084286Y-89720057D02*
X117131905Y-89672438D01*
X117131905Y-89672438D02*
X117227143Y-89624819D01*
X117227143Y-89624819D02*
X117465238Y-89624819D01*
X117465238Y-89624819D02*
X117560476Y-89672438D01*
X117560476Y-89672438D02*
X117608095Y-89720057D01*
X117608095Y-89720057D02*
X117655714Y-89815295D01*
X117655714Y-89815295D02*
X117655714Y-89910533D01*
X117655714Y-89910533D02*
X117608095Y-90053390D01*
X117608095Y-90053390D02*
X117036667Y-90624819D01*
X117036667Y-90624819D02*
X117655714Y-90624819D01*
X111763390Y-91955713D02*
X111715771Y-92050951D01*
X111715771Y-92050951D02*
X111668152Y-92098570D01*
X111668152Y-92098570D02*
X111572914Y-92146189D01*
X111572914Y-92146189D02*
X111525295Y-92146189D01*
X111525295Y-92146189D02*
X111430057Y-92098570D01*
X111430057Y-92098570D02*
X111382438Y-92050951D01*
X111382438Y-92050951D02*
X111334819Y-91955713D01*
X111334819Y-91955713D02*
X111334819Y-91765237D01*
X111334819Y-91765237D02*
X111382438Y-91669999D01*
X111382438Y-91669999D02*
X111430057Y-91622380D01*
X111430057Y-91622380D02*
X111525295Y-91574761D01*
X111525295Y-91574761D02*
X111572914Y-91574761D01*
X111572914Y-91574761D02*
X111668152Y-91622380D01*
X111668152Y-91622380D02*
X111715771Y-91669999D01*
X111715771Y-91669999D02*
X111763390Y-91765237D01*
X111763390Y-91765237D02*
X111763390Y-91955713D01*
X111763390Y-91955713D02*
X111811009Y-92050951D01*
X111811009Y-92050951D02*
X111858628Y-92098570D01*
X111858628Y-92098570D02*
X111953866Y-92146189D01*
X111953866Y-92146189D02*
X112144342Y-92146189D01*
X112144342Y-92146189D02*
X112239580Y-92098570D01*
X112239580Y-92098570D02*
X112287200Y-92050951D01*
X112287200Y-92050951D02*
X112334819Y-91955713D01*
X112334819Y-91955713D02*
X112334819Y-91765237D01*
X112334819Y-91765237D02*
X112287200Y-91669999D01*
X112287200Y-91669999D02*
X112239580Y-91622380D01*
X112239580Y-91622380D02*
X112144342Y-91574761D01*
X112144342Y-91574761D02*
X111953866Y-91574761D01*
X111953866Y-91574761D02*
X111858628Y-91622380D01*
X111858628Y-91622380D02*
X111811009Y-91669999D01*
X111811009Y-91669999D02*
X111763390Y-91765237D01*
X112239580Y-91146189D02*
X112287200Y-91098570D01*
X112287200Y-91098570D02*
X112334819Y-91146189D01*
X112334819Y-91146189D02*
X112287200Y-91193808D01*
X112287200Y-91193808D02*
X112239580Y-91146189D01*
X112239580Y-91146189D02*
X112334819Y-91146189D01*
X111334819Y-90479523D02*
X111334819Y-90384285D01*
X111334819Y-90384285D02*
X111382438Y-90289047D01*
X111382438Y-90289047D02*
X111430057Y-90241428D01*
X111430057Y-90241428D02*
X111525295Y-90193809D01*
X111525295Y-90193809D02*
X111715771Y-90146190D01*
X111715771Y-90146190D02*
X111953866Y-90146190D01*
X111953866Y-90146190D02*
X112144342Y-90193809D01*
X112144342Y-90193809D02*
X112239580Y-90241428D01*
X112239580Y-90241428D02*
X112287200Y-90289047D01*
X112287200Y-90289047D02*
X112334819Y-90384285D01*
X112334819Y-90384285D02*
X112334819Y-90479523D01*
X112334819Y-90479523D02*
X112287200Y-90574761D01*
X112287200Y-90574761D02*
X112239580Y-90622380D01*
X112239580Y-90622380D02*
X112144342Y-90669999D01*
X112144342Y-90669999D02*
X111953866Y-90717618D01*
X111953866Y-90717618D02*
X111715771Y-90717618D01*
X111715771Y-90717618D02*
X111525295Y-90669999D01*
X111525295Y-90669999D02*
X111430057Y-90622380D01*
X111430057Y-90622380D02*
X111382438Y-90574761D01*
X111382438Y-90574761D02*
X111334819Y-90479523D01*
X111334819Y-89289047D02*
X111334819Y-89479523D01*
X111334819Y-89479523D02*
X111382438Y-89574761D01*
X111382438Y-89574761D02*
X111430057Y-89622380D01*
X111430057Y-89622380D02*
X111572914Y-89717618D01*
X111572914Y-89717618D02*
X111763390Y-89765237D01*
X111763390Y-89765237D02*
X112144342Y-89765237D01*
X112144342Y-89765237D02*
X112239580Y-89717618D01*
X112239580Y-89717618D02*
X112287200Y-89669999D01*
X112287200Y-89669999D02*
X112334819Y-89574761D01*
X112334819Y-89574761D02*
X112334819Y-89384285D01*
X112334819Y-89384285D02*
X112287200Y-89289047D01*
X112287200Y-89289047D02*
X112239580Y-89241428D01*
X112239580Y-89241428D02*
X112144342Y-89193809D01*
X112144342Y-89193809D02*
X111906247Y-89193809D01*
X111906247Y-89193809D02*
X111811009Y-89241428D01*
X111811009Y-89241428D02*
X111763390Y-89289047D01*
X111763390Y-89289047D02*
X111715771Y-89384285D01*
X111715771Y-89384285D02*
X111715771Y-89574761D01*
X111715771Y-89574761D02*
X111763390Y-89669999D01*
X111763390Y-89669999D02*
X111811009Y-89717618D01*
X111811009Y-89717618D02*
X111906247Y-89765237D01*
X112334819Y-88765237D02*
X111334819Y-88765237D01*
X112334819Y-88193809D02*
X111763390Y-88622380D01*
X111334819Y-88193809D02*
X111906247Y-88765237D01*
X125897333Y-69034819D02*
X125564000Y-68558628D01*
X125325905Y-69034819D02*
X125325905Y-68034819D01*
X125325905Y-68034819D02*
X125706857Y-68034819D01*
X125706857Y-68034819D02*
X125802095Y-68082438D01*
X125802095Y-68082438D02*
X125849714Y-68130057D01*
X125849714Y-68130057D02*
X125897333Y-68225295D01*
X125897333Y-68225295D02*
X125897333Y-68368152D01*
X125897333Y-68368152D02*
X125849714Y-68463390D01*
X125849714Y-68463390D02*
X125802095Y-68511009D01*
X125802095Y-68511009D02*
X125706857Y-68558628D01*
X125706857Y-68558628D02*
X125325905Y-68558628D01*
X126230667Y-68034819D02*
X126849714Y-68034819D01*
X126849714Y-68034819D02*
X126516381Y-68415771D01*
X126516381Y-68415771D02*
X126659238Y-68415771D01*
X126659238Y-68415771D02*
X126754476Y-68463390D01*
X126754476Y-68463390D02*
X126802095Y-68511009D01*
X126802095Y-68511009D02*
X126849714Y-68606247D01*
X126849714Y-68606247D02*
X126849714Y-68844342D01*
X126849714Y-68844342D02*
X126802095Y-68939580D01*
X126802095Y-68939580D02*
X126754476Y-68987200D01*
X126754476Y-68987200D02*
X126659238Y-69034819D01*
X126659238Y-69034819D02*
X126373524Y-69034819D01*
X126373524Y-69034819D02*
X126278286Y-68987200D01*
X126278286Y-68987200D02*
X126230667Y-68939580D01*
X121528819Y-69270476D02*
X121528819Y-69841904D01*
X121528819Y-69556190D02*
X120528819Y-69556190D01*
X120528819Y-69556190D02*
X120671676Y-69651428D01*
X120671676Y-69651428D02*
X120766914Y-69746666D01*
X120766914Y-69746666D02*
X120814533Y-69841904D01*
X120528819Y-68651428D02*
X120528819Y-68556190D01*
X120528819Y-68556190D02*
X120576438Y-68460952D01*
X120576438Y-68460952D02*
X120624057Y-68413333D01*
X120624057Y-68413333D02*
X120719295Y-68365714D01*
X120719295Y-68365714D02*
X120909771Y-68318095D01*
X120909771Y-68318095D02*
X121147866Y-68318095D01*
X121147866Y-68318095D02*
X121338342Y-68365714D01*
X121338342Y-68365714D02*
X121433580Y-68413333D01*
X121433580Y-68413333D02*
X121481200Y-68460952D01*
X121481200Y-68460952D02*
X121528819Y-68556190D01*
X121528819Y-68556190D02*
X121528819Y-68651428D01*
X121528819Y-68651428D02*
X121481200Y-68746666D01*
X121481200Y-68746666D02*
X121433580Y-68794285D01*
X121433580Y-68794285D02*
X121338342Y-68841904D01*
X121338342Y-68841904D02*
X121147866Y-68889523D01*
X121147866Y-68889523D02*
X120909771Y-68889523D01*
X120909771Y-68889523D02*
X120719295Y-68841904D01*
X120719295Y-68841904D02*
X120624057Y-68794285D01*
X120624057Y-68794285D02*
X120576438Y-68746666D01*
X120576438Y-68746666D02*
X120528819Y-68651428D01*
X121528819Y-67889523D02*
X120528819Y-67889523D01*
X121528819Y-67318095D02*
X120957390Y-67746666D01*
X120528819Y-67318095D02*
X121100247Y-67889523D01*
D12*
%TO.C,BT1*%
X78230000Y-75940000D02*
X83300000Y-75940000D01*
X78230000Y-81540000D02*
X78230000Y-75940000D01*
X78230000Y-81540000D02*
X83300000Y-81540000D01*
X83300000Y-75940000D02*
X83300000Y-72460000D01*
X83300000Y-81540000D02*
X83300000Y-82990000D01*
X83300000Y-82990000D02*
X90180000Y-89370000D01*
X97780000Y-89370000D02*
X90180000Y-89370000D01*
X104660000Y-75940000D02*
X104660000Y-72390000D01*
X104660000Y-81540000D02*
X104660000Y-82990000D01*
X104660000Y-81540000D02*
X109730000Y-81540000D01*
X104660000Y-82990000D02*
X97780000Y-89370000D01*
X109730000Y-75940000D02*
X104660000Y-75940000D01*
X109730000Y-81540000D02*
X109730000Y-75940000D01*
X88799999Y-70400001D02*
G75*
G03*
X83302942Y-72440000I-2369999J-2040000D01*
G01*
X88810002Y-70409998D02*
G75*
G03*
X99286421Y-70272607I5169998J5269999D01*
G01*
X104660000Y-72440000D02*
G75*
G03*
X99296452Y-70247247I-3130000J0D01*
G01*
%TO.C,D1*%
X149063515Y-65948999D02*
G75*
G03*
X148906608Y-62716666I-1235515J1559999D01*
G01*
X148907999Y-65429960D02*
G75*
G03*
X148907836Y-63347871I-1079999J1040960D01*
G01*
X146749392Y-62716666D02*
G75*
G03*
X146592485Y-65948999I1078608J-1672334D01*
G01*
X146748164Y-63347871D02*
G75*
G03*
X146748001Y-65429960I1079836J-1041129D01*
G01*
X146592000Y-65949000D02*
X146748000Y-65949000D01*
X148908000Y-65949000D02*
X149064000Y-65949000D01*
%TO.C,U1*%
X132355000Y-74870000D02*
X132355000Y-85150000D01*
X136855000Y-74870000D02*
X135605000Y-74870000D01*
X132355000Y-85150000D02*
X136855000Y-85150000D01*
X136855000Y-85150000D02*
X136855000Y-74870000D01*
X133605000Y-74870000D02*
X132355000Y-74870000D01*
X133605000Y-74870000D02*
G75*
G03*
X135605000Y-74870000I1000000J0D01*
G01*
%TO.C,TH1*%
X123444000Y-86130000D02*
X123444000Y-86900000D01*
X124814000Y-86900000D02*
X122074000Y-86900000D01*
X122074000Y-86900000D02*
X122074000Y-93440000D01*
X124814000Y-93440000D02*
X124814000Y-86900000D01*
X122074000Y-93440000D02*
X124814000Y-93440000D01*
X123444000Y-94210000D02*
X123444000Y-93440000D01*
%TO.C,R1*%
X114250000Y-64620000D02*
X114250000Y-65390000D01*
X115620000Y-65390000D02*
X112880000Y-65390000D01*
X112880000Y-65390000D02*
X112880000Y-71930000D01*
X115620000Y-71930000D02*
X115620000Y-65390000D01*
X112880000Y-71930000D02*
X115620000Y-71930000D01*
X114250000Y-72700000D02*
X114250000Y-71930000D01*
%TO.C,R4*%
X147828000Y-77700000D02*
X147828000Y-76930000D01*
X146458000Y-76930000D02*
X149198000Y-76930000D01*
X149198000Y-76930000D02*
X149198000Y-70390000D01*
X146458000Y-70390000D02*
X146458000Y-76930000D01*
X149198000Y-70390000D02*
X146458000Y-70390000D01*
X147828000Y-69620000D02*
X147828000Y-70390000D01*
%TO.C,R2*%
X114250000Y-86130000D02*
X114250000Y-86900000D01*
X115620000Y-86900000D02*
X112880000Y-86900000D01*
X112880000Y-86900000D02*
X112880000Y-93440000D01*
X115620000Y-93440000D02*
X115620000Y-86900000D01*
X112880000Y-93440000D02*
X115620000Y-93440000D01*
X114250000Y-94210000D02*
X114250000Y-93440000D01*
%TO.C,R3*%
X123444000Y-64540000D02*
X123444000Y-65310000D01*
X124814000Y-65310000D02*
X122074000Y-65310000D01*
X122074000Y-65310000D02*
X122074000Y-71850000D01*
X124814000Y-71850000D02*
X124814000Y-65310000D01*
X122074000Y-71850000D02*
X124814000Y-71850000D01*
X123444000Y-72620000D02*
X123444000Y-71850000D01*
%TD*%
M02*
